<svg xmlns="http://www.w3.org/2000/svg" xmlns:xlink="http://www.w3.org/1999/xlink" contentStyleType="text/css" data-diagram-type="DESCRIPTION" height="669px" preserveAspectRatio="none" style="width:1111px;height:669px;background:#FFFFFF;" version="1.1" viewBox="0 0 1111 669" width="1111px" zoomAndPan="magnify"><title>Campus Marketplace - System Architecture</title><defs/><g><g class="title" data-source-line="9"><text fill="#000000" font-family="Arial" font-size="14" font-weight="bold" lengthAdjust="spacing" textLength="342.4463" x="377.2769" y="22.9951">Campus Marketplace - System Architecture</text></g><!--cluster client--><g class="cluster" data-entity="client" data-source-line="12" data-uid="ent0002" id="cluster_client"><path d="M428.5,43.2969 L465.6636,43.2969 A3.75,3.75 0 0 1 468.1636,45.7969 L475.1636,62.1016 L714.5,62.1016 A2.5,2.5 0 0 1 717,64.6016 L717,120.6069 A2.5,2.5 0 0 1 714.5,123.1069 L428.5,123.1069 A2.5,2.5 0 0 1 426,120.6069 L426,45.7969 A2.5,2.5 0 0 1 428.5,43.2969" fill="#ADD8E6" style="stroke:#000000;stroke-width:1.5;"/><line style="stroke:#000000;stroke-width:1.5;" x1="426" x2="475.1636" y1="62.1016" y2="62.1016"/><text fill="#000000" font-family="Arial" font-size="11" font-weight="bold" lengthAdjust="spacing" textLength="36.1636" x="430" y="55.5073">Client</text></g><!--cluster frontend--><g class="cluster" data-entity="frontend" data-source-line="19" data-uid="ent0006" id="cluster_frontend"><path d="M509.5,147.1069 L616.2676,147.1069 A3.75,3.75 0 0 1 618.7676,149.6069 L625.7676,165.9116 L630.5,165.9116 A2.5,2.5 0 0 1 633,168.4116 L633,224.4069 A2.5,2.5 0 0 1 630.5,226.9069 L509.5,226.9069 A2.5,2.5 0 0 1 507,224.4069 L507,149.6069 A2.5,2.5 0 0 1 509.5,147.1069" fill="#90EE90" style="stroke:#000000;stroke-width:1.5;"/><line style="stroke:#000000;stroke-width:1.5;" x1="507" x2="625.7676" y1="165.9116" y2="165.9116"/><text fill="#000000" font-family="Arial" font-size="11" font-weight="bold" lengthAdjust="spacing" textLength="105.7676" x="511" y="159.3173">Frontend (React)</text></g><!--cluster cloud--><g class="cluster" data-entity="cloud" data-source-line="24" data-uid="ent0008" id="cluster_cloud"><path d="M480.5,250.9069 L650.002,250.9069 A3.75,3.75 0 0 1 652.502,253.4069 L659.502,269.7116 L659.5,269.7116 A2.5,2.5 0 0 1 662,272.2116 L662,426.6269 A2.5,2.5 0 0 1 659.5,429.1269 L480.5,429.1269 A2.5,2.5 0 0 1 478,426.6269 L478,253.4069 A2.5,2.5 0 0 1 480.5,250.9069" fill="#FFFACD" style="stroke:#000000;stroke-width:1.5;"/><line style="stroke:#000000;stroke-width:1.5;" x1="478" x2="659.502" y1="269.7116" y2="269.7116"/><text fill="#000000" font-family="Arial" font-size="11" font-weight="bold" lengthAdjust="spacing" textLength="168.502" x="482" y="263.1173">Cloud Infrastructure (AWS)</text></g><!--cluster backend--><g class="cluster" data-entity="backend" data-source-line="32" data-uid="ent0012" id="cluster_backend"><path d="M8.5,453.1269 L205.5825,453.1269 A3.75,3.75 0 0 1 208.0825,455.6269 L215.0825,471.9316 L1101.5,471.9316 A2.5,2.5 0 0 1 1104,474.4316 L1104,543.2369 A2.5,2.5 0 0 1 1101.5,545.7369 L8.5,545.7369 A2.5,2.5 0 0 1 6,543.2369 L6,455.6269 A2.5,2.5 0 0 1 8.5,453.1269" fill="#F08080" style="stroke:#000000;stroke-width:1.5;"/><line style="stroke:#000000;stroke-width:1.5;" x1="6" x2="215.0825" y1="471.9316" y2="471.9316"/><text fill="#000000" font-family="Arial" font-size="11" font-weight="bold" lengthAdjust="spacing" textLength="196.0825" x="10" y="465.3373">Backend Services (Spring Boot)</text></g><!--cluster external--><g class="cluster" data-entity="external" data-source-line="42" data-uid="ent0019" id="cluster_external"><path d="M813.5,569.7369 L922.3838,569.7369 A3.75,3.75 0 0 1 924.8838,572.2369 L931.8838,588.5416 L1092.5,588.5416 A2.5,2.5 0 0 1 1095,591.0416 L1095,659.8469 A2.5,2.5 0 0 1 1092.5,662.3469 L813.5,662.3469 A2.5,2.5 0 0 1 811,659.8469 L811,572.2369 A2.5,2.5 0 0 1 813.5,569.7369" fill="#DDA0DD" style="stroke:#000000;stroke-width:1.5;"/><line style="stroke:#000000;stroke-width:1.5;" x1="811" x2="931.8838" y1="588.5416" y2="588.5416"/><text fill="#000000" font-family="Arial" font-size="11" font-weight="bold" lengthAdjust="spacing" textLength="107.8838" x="815" y="581.9473">External Services</text></g><!--entity buyer--><g class="entity" data-entity="buyer" data-source-line="13" data-uid="ent0003" id="entity_buyer"><rect fill="#F1F1F1" height="32.8047" rx="2.5" ry="2.5" style="stroke:#181818;stroke-width:0.5;" width="52.3179" x="441.84" y="74.2969"/><text fill="#000000" font-family="Arial" font-size="11" lengthAdjust="spacing" textLength="32.3179" x="451.84" y="94.5073">Buyer</text></g><!--entity seller--><g class="entity" data-entity="seller" data-source-line="14" data-uid="ent0004" id="entity_seller"><rect fill="#F1F1F1" height="32.8047" rx="2.5" ry="2.5" style="stroke:#181818;stroke-width:0.5;" width="51.1523" x="544.42" y="74.2969"/><text fill="#000000" font-family="Arial" font-size="11" lengthAdjust="spacing" textLength="31.1523" x="554.42" y="94.5073">Seller</text></g><!--entity admin--><g class="entity" data-entity="admin" data-source-line="15" data-uid="ent0005" id="entity_admin"><rect fill="#F1F1F1" height="32.8047" rx="2.5" ry="2.5" style="stroke:#181818;stroke-width:0.5;" width="55.2505" x="645.37" y="74.2969"/><text fill="#000000" font-family="Arial" font-size="11" lengthAdjust="spacing" textLength="35.2505" x="655.37" y="94.5073">Admin</text></g><!--entity reactui--><g class="entity" data-entity="reactui" data-source-line="20" data-uid="ent0007" id="entity_reactui"><rect fill="#F1F1F1" height="32.8047" rx="2.5" ry="2.5" style="stroke:#181818;stroke-width:0.5;" width="94.4272" x="522.79" y="178.1069"/><text fill="#000000" font-family="Arial" font-size="11" lengthAdjust="spacing" textLength="74.4272" x="532.79" y="198.3173">React UI Web</text></g><!--entity elb--><g class="entity" data-entity="elb" data-source-line="25" data-uid="ent0009" id="entity_elb"><rect fill="#F1F1F1" height="45.6094" rx="2.5" ry="2.5" style="stroke:#181818;stroke-width:0.5;" width="85.9731" x="527.01" y="281.9069"/><text fill="#000000" font-family="Arial" font-size="11" lengthAdjust="spacing" textLength="65.9731" x="537.01" y="302.1173">Elastic Load</text><text fill="#000000" font-family="Arial" font-size="11" lengthAdjust="spacing" textLength="48.3936" x="537.01" y="314.922">Balancer</text></g><!--entity ec2--><g class="entity" data-entity="ec2" data-source-line="26" data-uid="ent0010" id="entity_ec2"><rect fill="#F1F1F1" height="45.6094" rx="2.5" ry="2.5" style="stroke:#181818;stroke-width:0.5;" width="110.7393" x="514.63" y="367.5169"/><text fill="#000000" font-family="Arial" font-size="11" lengthAdjust="spacing" textLength="90.7393" x="524.63" y="387.7273">Auto Scaled EC2</text><text fill="#000000" font-family="Arial" font-size="11" lengthAdjust="spacing" textLength="39.0425" x="524.63" y="400.532">Cluster</text></g><!--entity chat--><g class="entity" data-entity="chat" data-source-line="33" data-uid="ent0013" id="entity_chat"><rect fill="#F1F1F1" height="45.6094" rx="2.5" ry="2.5" style="stroke:#181818;stroke-width:0.5;" width="157.9727" x="592.01" y="484.1269"/><text fill="#000000" font-family="Arial" font-size="11" lengthAdjust="spacing" textLength="69.2012" x="602.01" y="504.3373">Chat Module</text><text fill="#000000" font-family="Arial" font-size="11" lengthAdjust="spacing" textLength="137.9727" x="602.01" y="517.142">(Buyer-Seller Messaging)</text></g><!--entity search--><g class="entity" data-entity="search" data-source-line="34" data-uid="ent0014" id="entity_search"><rect fill="#F1F1F1" height="45.6094" rx="2.5" ry="2.5" style="stroke:#181818;stroke-width:0.5;" width="99.7339" x="988.13" y="484.1269"/><text fill="#000000" font-family="Arial" font-size="11" lengthAdjust="spacing" textLength="62.2241" x="998.13" y="504.3373">Search and</text><text fill="#000000" font-family="Arial" font-size="11" lengthAdjust="spacing" textLength="79.7339" x="998.13" y="517.142">Listing Module</text></g><!--entity auth--><g class="entity" data-entity="auth" data-source-line="35" data-uid="ent0015" id="entity_auth"><rect fill="#F1F1F1" height="45.6094" rx="2.5" ry="2.5" style="stroke:#181818;stroke-width:0.5;" width="144.2441" x="397.88" y="484.1269"/><text fill="#000000" font-family="Arial" font-size="11" lengthAdjust="spacing" textLength="124.2441" x="407.88" y="504.3373">Authentication Module</text><text fill="#000000" font-family="Arial" font-size="11" lengthAdjust="spacing" textLength="112.272" x="407.88" y="517.142">(Login, Registration)</text></g><!--entity listing--><g class="entity" data-entity="listing" data-source-line="36" data-uid="ent0016" id="entity_listing"><rect fill="#F1F1F1" height="45.6094" rx="2.5" ry="2.5" style="stroke:#181818;stroke-width:0.5;" width="132.1968" x="21.9" y="484.1269"/><text fill="#000000" font-family="Arial" font-size="11" lengthAdjust="spacing" textLength="112.1968" x="31.9" y="504.3373">Listing Management</text><text fill="#000000" font-family="Arial" font-size="11" lengthAdjust="spacing" textLength="83.9233" x="31.9" y="517.142">Module (CRUD)</text></g><!--entity adminmod--><g class="entity" data-entity="adminmod" data-source-line="37" data-uid="ent0017" id="entity_adminmod"><rect fill="#F1F1F1" height="45.6094" rx="2.5" ry="2.5" style="stroke:#181818;stroke-width:0.5;" width="142.8101" x="204.59" y="484.1269"/><text fill="#000000" font-family="Arial" font-size="11" lengthAdjust="spacing" textLength="122.8101" x="214.59" y="504.3373">Admin Dashboard and</text><text fill="#000000" font-family="Arial" font-size="11" lengthAdjust="spacing" textLength="93.4463" x="214.59" y="517.142">Analytics Module</text></g><!--entity reports--><g class="entity" data-entity="reports" data-source-line="38" data-uid="ent0018" id="entity_reports"><rect fill="#F1F1F1" height="45.6094" rx="2.5" ry="2.5" style="stroke:#181818;stroke-width:0.5;" width="138.1318" x="799.93" y="484.1269"/><text fill="#000000" font-family="Arial" font-size="11" lengthAdjust="spacing" textLength="86.1846" x="809.93" y="504.3373">Reports Module</text><text fill="#000000" font-family="Arial" font-size="11" lengthAdjust="spacing" textLength="118.1318" x="809.93" y="517.142">(Content Moderation)</text></g><!--entity openai--><g class="entity" data-entity="openai" data-source-line="43" data-uid="ent0020" id="entity_openai"><rect fill="#F1F1F1" height="45.6094" rx="2.5" ry="2.5" style="stroke:#181818;stroke-width:0.5;" width="117.6948" x="961.15" y="600.7369"/><text fill="#000000" font-family="Arial" font-size="11" lengthAdjust="spacing" textLength="61.0479" x="971.15" y="620.9473">OpenAI API</text><text fill="#000000" font-family="Arial" font-size="11" lengthAdjust="spacing" textLength="97.6948" x="971.15" y="633.752">(ChatGPT Search)</text></g><!--entity smtp--><g class="entity" data-entity="smtp" data-source-line="44" data-uid="ent0021" id="entity_smtp"><rect fill="#F1F1F1" height="45.6094" rx="2.5" ry="2.5" style="stroke:#181818;stroke-width:0.5;" width="84.0503" x="826.97" y="600.7369"/><text fill="#000000" font-family="Arial" font-size="11" lengthAdjust="spacing" textLength="64.0503" x="836.97" y="620.9473">Email/SMTP</text><text fill="#000000" font-family="Arial" font-size="11" lengthAdjust="spacing" textLength="46.3848" x="836.97" y="633.752">Services</text></g><!--entity datalayer--><g class="entity" data-entity="datalayer" data-source-line="48" data-uid="ent0022" id="entity_datalayer"><path d="M468.83,612.6369 C468.83,602.6369 570.0043,602.6369 570.0043,602.6369 C570.0043,602.6369 671.1786,602.6369 671.1786,612.6369 L671.1786,634.4416 C671.1786,644.4416 570.0043,644.4416 570.0043,644.4416 C570.0043,644.4416 468.83,644.4416 468.83,634.4416 L468.83,612.6369" fill="#FFE4B5" style="stroke:#181818;stroke-width:0.5;"/><path d="M468.83,612.6369 C468.83,622.6369 570.0043,622.6369 570.0043,622.6369 C570.0043,622.6369 671.1786,622.6369 671.1786,612.6369" fill="none" style="stroke:#181818;stroke-width:0.5;"/><text fill="#000000" font-family="Arial" font-size="11" lengthAdjust="spacing" textLength="182.3486" x="478.83" y="636.8473">Data Layer (PostgreSQL + Redis)</text></g><!--link elb to ec2--><g class="link" data-entity-1="elb" data-entity-2="ec2" data-source-line="28" data-uid="lnk11" id="link_elb_ec2"><path d="M570,327.6569 C570,339.8369 570,348.7869 570,361.0169" fill="none" id="elb-to-ec2" style="stroke:#181818;stroke-width:1;"/><polygon fill="#181818" points="570,367.0169,574,358.0169,570,362.0169,566,358.0169,570,367.0169" style="stroke:#181818;stroke-width:1;"/></g><!--link buyer to reactui--><g class="link" data-entity-1="buyer" data-entity-2="reactui" data-source-line="54" data-uid="lnk23" id="link_buyer_reactui"><path d="M494.31,91.3469 C512.56,91.3469 533.61,91.3469 533.61,91.3469 C533.61,91.3469 533.61,142.7669 533.61,171.9369" fill="none" id="buyer-to-reactui" style="stroke:#181818;stroke-width:1;"/><polygon fill="#181818" points="533.61,177.9369,537.61,168.9369,533.61,172.9369,529.61,168.9369,533.61,177.9369" style="stroke:#181818;stroke-width:1;"/><text fill="#000000" font-family="Arial" font-size="11" lengthAdjust="spacing" textLength="37.8501" x="483.4157" y="126.1973">Access</text><text fill="#000000" font-family="Arial" font-size="11" lengthAdjust="spacing" textLength="61.4614" x="471.61" y="139.002">Application</text></g><!--link seller to reactui--><g class="link" data-entity-1="seller" data-entity-2="reactui" data-source-line="55" data-uid="lnk24" id="link_seller_reactui"><path d="M570,107.3769 C570,126.7469 570,152.5169 570,171.8669" fill="none" id="seller-to-reactui" style="stroke:#181818;stroke-width:1;"/><polygon fill="#181818" points="570,177.8669,574,168.8669,570,172.8669,566,168.8669,570,177.8669" style="stroke:#181818;stroke-width:1;"/><text fill="#000000" font-family="Arial" font-size="11" lengthAdjust="spacing" textLength="37.8501" x="582.8057" y="126.8373">Access</text><text fill="#000000" font-family="Arial" font-size="11" lengthAdjust="spacing" textLength="61.4614" x="571" y="139.642">Application</text></g><!--link admin to reactui--><g class="link" data-entity-1="admin" data-entity-2="reactui" data-source-line="56" data-uid="lnk25" id="link_admin_reactui"><path d="M645.14,91.3469 C626.89,91.3469 606.39,91.3469 606.39,91.3469 C606.39,91.3469 606.39,142.7669 606.39,171.9369" fill="none" id="admin-to-reactui" style="stroke:#181818;stroke-width:1;"/><polygon fill="#181818" points="606.39,177.9369,610.39,168.9369,606.39,172.9369,602.39,168.9369,606.39,177.9369" style="stroke:#181818;stroke-width:1;"/><text fill="#000000" font-family="Arial" font-size="11" lengthAdjust="spacing" textLength="37.8501" x="619.1957" y="99.4773">Access</text><text fill="#000000" font-family="Arial" font-size="11" lengthAdjust="spacing" textLength="61.4614" x="607.39" y="112.282">Application</text></g><!--link reactui to elb--><g class="link" data-entity-1="reactui" data-entity-2="elb" data-source-line="59" data-uid="lnk26" id="link_reactui_elb"><path d="M570,211.2469 C570,230.0369 570,254.6269 570,275.6669" fill="none" id="reactui-to-elb" style="stroke:#181818;stroke-width:1;"/><polygon fill="#181818" points="570,281.6669,574,272.6669,570,276.6669,566,272.6669,570,281.6669" style="stroke:#181818;stroke-width:1;"/><text fill="#000000" font-family="Arial" font-size="11" lengthAdjust="spacing" textLength="47.1636" x="522" y="243.6673">API Calls</text></g><!--link ec2 to chat--><g class="link" data-entity-1="ec2" data-entity-2="chat" data-source-line="62" data-uid="lnk27" id="link_ec2_chat"><path d="M608.69,413.3569 C608.69,433.8069 608.69,457.5169 608.69,477.9469" fill="none" id="ec2-to-chat" style="stroke:#181818;stroke-width:1;"/><polygon fill="#181818" points="608.69,483.9469,612.69,474.9469,608.69,478.9469,604.69,474.9469,608.69,483.9469" style="stroke:#181818;stroke-width:1;"/><text fill="#000000" font-family="Arial" font-size="11" lengthAdjust="spacing" textLength="71.8062" x="536.69" y="445.8673">API Requests</text></g><!--link ec2 to search--><g class="link" data-entity-1="ec2" data-entity-2="search" data-source-line="63" data-uid="lnk28" id="link_ec2_search"><path d="M625.52,383.3469 C749.49,383.3469 1038,383.3469 1038,383.3469 C1038,383.3469 1038,441.8869 1038,477.6869" fill="none" id="ec2-to-search" style="stroke:#181818;stroke-width:1;"/><polygon fill="#181818" points="1038,483.6869,1042,474.6869,1038,478.6869,1034,474.6869,1038,483.6869" style="stroke:#181818;stroke-width:1;"/><text fill="#000000" font-family="Arial" font-size="11" lengthAdjust="spacing" textLength="71.8062" x="809.93" y="380.5573">API Requests</text></g><!--link ec2 to auth--><g class="link" data-entity-1="ec2" data-entity-2="auth" data-source-line="64" data-uid="lnk29" id="link_ec2_auth"><path d="M528.38,413.3569 C528.38,433.8069 528.38,457.5169 528.38,477.9469" fill="none" id="ec2-to-auth" style="stroke:#181818;stroke-width:1;"/><polygon fill="#181818" points="528.38,483.9469,532.38,474.9469,528.38,478.9469,524.38,474.9469,528.38,483.9469" style="stroke:#181818;stroke-width:1;"/><text fill="#000000" font-family="Arial" font-size="11" lengthAdjust="spacing" textLength="71.8062" x="456.38" y="445.8673">API Requests</text></g><!--link ec2 to listing--><g class="link" data-entity-1="ec2" data-entity-2="listing" data-source-line="65" data-uid="lnk30" id="link_ec2_listing"><path d="M514.24,383.3469 C387.36,383.3469 88,383.3469 88,383.3469 C88,383.3469 88,441.8869 88,477.6869" fill="none" id="ec2-to-listing" style="stroke:#181818;stroke-width:1;"/><polygon fill="#181818" points="88,483.6869,92,474.6869,88,478.6869,84,474.6869,88,483.6869" style="stroke:#181818;stroke-width:1;"/><text fill="#000000" font-family="Arial" font-size="11" lengthAdjust="spacing" textLength="71.8062" x="178.95" y="380.5573">API Requests</text></g><!--link ec2 to adminmod--><g class="link" data-entity-1="ec2" data-entity-2="adminmod" data-source-line="66" data-uid="lnk31" id="link_ec2_adminmod"><path d="M514.36,398.3469 C429.12,398.3469 276,398.3469 276,398.3469 C276,398.3469 276,445.7369 276,477.6369" fill="none" id="ec2-to-adminmod" style="stroke:#181818;stroke-width:1;"/><polygon fill="#181818" points="276,483.6369,280,474.6369,276,478.6369,272,474.6369,276,483.6369" style="stroke:#181818;stroke-width:1;"/><text fill="#000000" font-family="Arial" font-size="11" lengthAdjust="spacing" textLength="71.8062" x="280.53" y="395.5573">API Requests</text></g><!--link ec2 to reports--><g class="link" data-entity-1="ec2" data-entity-2="reports" data-source-line="67" data-uid="lnk32" id="link_ec2_reports"><path d="M625.54,398.3469 C712.01,398.3469 869,398.3469 869,398.3469 C869,398.3469 869,445.7369 869,477.6369" fill="none" id="ec2-to-reports" style="stroke:#181818;stroke-width:1;"/><polygon fill="#181818" points="869,483.6369,873,474.6369,869,478.6369,865,474.6369,869,483.6369" style="stroke:#181818;stroke-width:1;"/><text fill="#000000" font-family="Arial" font-size="11" lengthAdjust="spacing" textLength="71.8062" x="717.92" y="395.5573">API Requests</text></g><!--link search to openai--><g class="link" data-entity-1="search" data-entity-2="openai" data-source-line="70" data-uid="lnk33" id="link_search_openai"><path d="M1048.61,529.9669 C1048.61,550.4169 1048.61,574.1269 1048.61,594.5469" fill="none" id="search-to-openai" style="stroke:#181818;stroke-width:1;"/><polygon fill="#181818" points="1048.61,600.5469,1052.61,591.5469,1048.61,595.5469,1044.61,591.5469,1048.61,600.5469" style="stroke:#181818;stroke-width:1;"/></g><!--link chat to smtp--><g class="link" data-entity-1="chat" data-entity-2="smtp" data-source-line="71" data-uid="lnk34" id="link_chat_smtp"><path d="M710.58,530.0469 C710.58,566.0269 710.58,631.3469 710.58,631.3469 C710.58,631.3469 773.62,631.3469 820.55,631.3469" fill="none" id="chat-to-smtp" style="stroke:#181818;stroke-width:1;"/><polygon fill="#181818" points="826.55,631.3469,817.55,627.3469,821.55,631.3469,817.55,635.3469,826.55,631.3469" style="stroke:#181818;stroke-width:1;"/></g><!--link reports to smtp--><g class="link" data-entity-1="reports" data-entity-2="smtp" data-source-line="72" data-uid="lnk35" id="link_reports_smtp"><path d="M869,529.9669 C869,550.4169 869,574.1269 869,594.5469" fill="none" id="reports-to-smtp" style="stroke:#181818;stroke-width:1;"/><polygon fill="#181818" points="869,600.5469,873,591.5469,869,595.5469,865,591.5469,869,600.5469" style="stroke:#181818;stroke-width:1;"/></g><!--link chat to datalayer--><g class="link" data-entity-1="chat" data-entity-2="datalayer" data-source-line="75" data-uid="lnk36" id="link_chat_datalayer"><path d="M618.4,529.9669 C618.4,551.0769 618.4,576.0669 618.4,596.5069" fill="none" id="chat-to-datalayer" style="stroke:#181818;stroke-width:1;"/><polygon fill="#181818" points="618.4,602.5069,622.4,593.5069,618.4,597.5069,614.4,593.5069,618.4,602.5069" style="stroke:#181818;stroke-width:1;"/><text fill="#000000" font-family="Arial" font-size="11" lengthAdjust="spacing" textLength="61.6064" x="556.4" y="563.4473">Data CRUD</text></g><!--link search to datalayer--><g class="link" data-entity-1="search" data-entity-2="datalayer" data-source-line="76" data-uid="lnk37" id="link_search_datalayer"><path d="M1018.37,530.0169 C1018.37,546.3469 1018.37,565.3469 1018.37,565.3469 C1018.37,565.3469 644.79,565.3469 644.79,565.3469 C644.79,565.3469 644.79,579.5969 644.79,596.2069" fill="none" id="search-to-datalayer" style="stroke:#181818;stroke-width:1;"/><polygon fill="#181818" points="644.79,602.2069,648.79,593.2069,644.79,597.2069,640.79,593.2069,644.79,602.2069" style="stroke:#181818;stroke-width:1;"/></g><!--link auth to datalayer--><g class="link" data-entity-1="auth" data-entity-2="datalayer" data-source-line="77" data-uid="lnk38" id="link_auth_datalayer"><path d="M505.47,529.9669 C505.47,551.0769 505.47,576.0669 505.47,596.5069" fill="none" id="auth-to-datalayer" style="stroke:#181818;stroke-width:1;"/><polygon fill="#181818" points="505.47,602.5069,509.47,593.5069,505.47,597.5069,501.47,593.5069,505.47,602.5069" style="stroke:#181818;stroke-width:1;"/></g><!--link listing to datalayer--><g class="link" data-entity-1="listing" data-entity-2="datalayer" data-source-line="78" data-uid="lnk39" id="link_listing_datalayer"><path d="M88,530.0469 C88,566.0269 88,631.3469 88,631.3469 C88,631.3469 320.96,631.3469 462.37,631.3469" fill="none" id="listing-to-datalayer" style="stroke:#181818;stroke-width:1;"/><polygon fill="#181818" points="468.37,631.3469,459.37,627.3469,463.37,631.3469,459.37,635.3469,468.37,631.3469" style="stroke:#181818;stroke-width:1;"/></g><!--link adminmod to datalayer--><g class="link" data-entity-1="adminmod" data-entity-2="datalayer" data-source-line="79" data-uid="lnk40" id="link_adminmod_datalayer"><path d="M276,530.0769 C276,562.4569 276,617.3469 276,617.3469 C276,617.3469 377.43,617.3469 462.41,617.3469" fill="none" id="adminmod-to-datalayer" style="stroke:#181818;stroke-width:1;"/><polygon fill="#181818" points="468.41,617.3469,459.41,613.3469,463.41,617.3469,459.41,621.3469,468.41,617.3469" style="stroke:#181818;stroke-width:1;"/></g><!--link reports to datalayer--><g class="link" data-entity-1="reports" data-entity-2="datalayer" data-source-line="80" data-uid="lnk41" id="link_reports_datalayer"><path d="M813.45,530.0769 C813.45,562.4569 813.45,617.3469 813.45,617.3469 C813.45,617.3469 744.28,617.3469 677.48,617.3469" fill="none" id="reports-to-datalayer" style="stroke:#181818;stroke-width:1;"/><polygon fill="#181818" points="671.48,617.3469,680.48,621.3469,676.48,617.3469,680.48,613.3469,671.48,617.3469" style="stroke:#181818;stroke-width:1;"/></g><!--SRC=[ZLLjZzis3FxkNq5SFYp5TcXQj4Lxm0eujZC4yoKtsrbR85yOMvS89qkU97TBX_ttqRATvF9oTmaG2EH3YW_ra34FN5QeiOGLvWzhhMfP14ee3Nzlk6MUsVaBTe-ri1CbxGnB1hxcACxxK_w3mPit1yvSbPMIZ5nsAnXebbkKQt6ONt39xBPYeBJTg0E7L0Kph8BtemEZHldG6D-DFCzoIpa3BAlQm2tg1sOhWJc3QqYtnhAIQiqRDhcjDVEyd-3NCny8ucaqoyxwl8gQWsi6Lu7WnE8Aq43kZZ3mm_1Zz07-zO0-Ew9mDQwtJ3lagZaTkrCcHEStxdWCy8kII-V7vkJzTx7oIJAVPT4iVARsYQQtORA0OS8mjwzSxllUEFWqYg9FerCU3WoBANnXAnUY6qFDdoWeYEUB4AQpIUAdMR88iaKIFTjOLHSmbVSQZTMrUoeO-b_ILrsp6_TWCfduGNXQOoGeYkSGAooMSem2PTurbudLIMThgo3DKR02ek3jKWQY9frq-FojmxiV2eRhwy_EU9dks0z-RzgVHicVqo1Adw4wfaFJyPJfxpnd1ePffRbSmrYfxbLM7MGm6NsaxodXO8CMRbLH2xQKGoUrwrPHSCkCmJNbwpf7o5Fj8Kq4eAHcnPmwHvUtoJezDkupNTlGWUTekPBxosD5b_q22LjJ9ksSxSr80ST9ThUXf5wKP5lADXCCWsGHjf6YHPsT20ZHR5OATT7MxqiKMwhA739m4rEgubJB5QqNioy-SEfthMI7jUiM-CIZHr-pA9dvyKjVFVg754QrxfwzLLjl7OIXFmhFI7jUCUbFmR-RDkNIO_vsbq7xW6sfYW38JoQYH2vUfxVPtL8-kj6Kjdg2LkXdFiJ-joWvpwT0YoiqH2Ya4yH8oeFXdJ9shLdwHmm_an8ARjhQ6hHm41hTwDtuFV5xOctCPxCeoARpsOLcKc2xW846k5zddbklRaoxpGGtuEV4rv0wgafqYlNQDVi2e5FF2t1KpcwdKa5kXNbzY5iRj3vkcgUZVoSXJ5j_iyW8tMq1ZrQBmpPpse4JzbVD3AclzxK3USdRpDabNpT95qExERdaxyRWs4qy-YL6J7fbUrsPJM0dIaVACMXKrsVR6HxdsGjg7xSNq4thRvR4uKKxWEVQyDZKipy2zgGVcm-hsrd_1m00]--></g></svg>