<svg xmlns="http://www.w3.org/2000/svg" xmlns:xlink="http://www.w3.org/1999/xlink" contentStyleType="text/css" data-diagram-type="CLASS" height="714px" preserveAspectRatio="none" style="width:697px;height:714px;background:#FFFFFF;" version="1.1" viewBox="0 0 697 714" width="697px" zoomAndPan="magnify"><title>Campus Marketplace - ER Class Diagram</title><defs/><g><g class="title" data-source-line="7"><text fill="#000000" font-family="sans-serif" font-size="14" font-weight="bold" lengthAdjust="spacing" textLength="319.0127" x="182.1497" y="22.9951">Campus Marketplace - ER Class Diagram</text></g><!--class User--><g class="entity" data-entity="User" data-source-line="9" data-uid="ent0002" id="entity_User"><rect fill="#ADD8E6" height="120.8281" rx="2.5" ry="2.5" style="stroke:#333333;stroke-width:0.5;" width="107.2188" x="289" y="44.2969"/><ellipse cx="326.3659" cy="58.2969" fill="#ADD1B2" rx="9" ry="9" style="stroke:#181818;stroke-width:1;"/><path d="M327.6784,62.0625 Q327.3034,62.2656 326.8815,62.3594 Q326.4753,62.4531 326.0065,62.4531 Q324.3972,62.4531 323.5378,61.3906 Q322.6784,60.3125 322.6784,58.2969 Q322.6784,56.2656 323.5378,55.2031 Q324.3972,54.125 326.0065,54.125 Q326.4753,54.125 326.8815,54.2344 Q327.3034,54.3281 327.6784,54.5156 L327.6784,56.2813 Q327.2565,55.9063 326.8659,55.7344 Q326.4909,55.5625 326.0847,55.5625 Q325.2253,55.5625 324.7722,56.25 Q324.3347,56.9375 324.3347,58.2969 Q324.3347,59.6563 324.7722,60.3438 Q325.2253,61.0313 326.0847,61.0313 Q326.4909,61.0313 326.8659,60.8594 Q327.2565,60.6875 327.6784,60.2969 L327.6784,62.0625 Z " fill="#000000"/><text fill="#000000" font-family="sans-serif" font-size="11" lengthAdjust="spacing" textLength="25.0723" x="343.7806" y="62.105">User</text><line style="stroke:#333333;stroke-width:0.5;" x1="290" x2="395.2188" y1="72.2969" y2="72.2969"/><text fill="#000000" font-family="sans-serif" font-size="11" lengthAdjust="spacing" textLength="45.0581" x="295" y="86.5073">id: UUID</text><text fill="#000000" font-family="sans-serif" font-size="11" lengthAdjust="spacing" textLength="95.2188" x="295" y="99.312">username: String</text><text fill="#000000" font-family="sans-serif" font-size="11" lengthAdjust="spacing" textLength="70.3667" x="295" y="112.1167">email: String</text><text fill="#000000" font-family="sans-serif" font-size="11" lengthAdjust="spacing" textLength="93.978" x="295" y="124.9214">firstName: String</text><text fill="#000000" font-family="sans-serif" font-size="11" lengthAdjust="spacing" textLength="92.3237" x="295" y="137.7261">lastName: String</text><text fill="#000000" font-family="sans-serif" font-size="11" lengthAdjust="spacing" textLength="94.7031" x="295" y="150.5308">roles: Set&lt;Role&gt;</text><line style="stroke:#333333;stroke-width:0.5;" x1="290" x2="395.2188" y1="157.125" y2="157.125"/></g><!--class Role--><g class="entity" data-entity="Role" data-source-line="18" data-uid="ent0003" id="entity_Role"><rect fill="#ADD8E6" height="69.6094" rx="2.5" ry="2.5" style="stroke:#333333;stroke-width:0.5;" width="83.2261" x="7" y="269.9369"/><ellipse cx="33.9632" cy="283.9369" fill="#ADD1B2" rx="9" ry="9" style="stroke:#181818;stroke-width:1;"/><path d="M35.2757,287.7025 Q34.9007,287.9056 34.4788,287.9994 Q34.0726,288.0931 33.6038,288.0931 Q31.9944,288.0931 31.1351,287.0306 Q30.2757,285.9525 30.2757,283.9369 Q30.2757,281.9056 31.1351,280.8431 Q31.9944,279.765 33.6038,279.765 Q34.0726,279.765 34.4788,279.8744 Q34.9007,279.9681 35.2757,280.1556 L35.2757,281.9212 Q34.8538,281.5462 34.4632,281.3744 Q34.0882,281.2025 33.6819,281.2025 Q32.8226,281.2025 32.3694,281.89 Q31.9319,282.5775 31.9319,283.9369 Q31.9319,285.2962 32.3694,285.9837 Q32.8226,286.6712 33.6819,286.6712 Q34.0882,286.6712 34.4632,286.4994 Q34.8538,286.3275 35.2757,285.9369 L35.2757,287.7025 Z " fill="#000000"/><text fill="#000000" font-family="sans-serif" font-size="11" lengthAdjust="spacing" textLength="24.1968" x="49.0661" y="287.745">Role</text><line style="stroke:#333333;stroke-width:0.5;" x1="8" x2="89.2261" y1="297.9369" y2="297.9369"/><text fill="#000000" font-family="sans-serif" font-size="11" lengthAdjust="spacing" textLength="45.0581" x="13" y="312.1473">id: UUID</text><text fill="#000000" font-family="sans-serif" font-size="11" lengthAdjust="spacing" textLength="71.2261" x="13" y="324.952">name: String</text><line style="stroke:#333333;stroke-width:0.5;" x1="8" x2="89.2261" y1="331.5462" y2="331.5462"/></g><!--class Listing--><g class="entity" data-entity="Listing" data-source-line="23" data-uid="ent0004" id="entity_Listing"><rect fill="#90EE90" height="159.2422" rx="2.5" ry="2.5" style="stroke:#333333;stroke-width:0.5;" width="129.686" x="124.77" y="225.1269"/><ellipse cx="167.7436" cy="239.1269" fill="#ADD1B2" rx="9" ry="9" style="stroke:#181818;stroke-width:1;"/><path d="M169.0561,242.8925 Q168.6811,243.0956 168.2593,243.1894 Q167.853,243.2831 167.3843,243.2831 Q165.7749,243.2831 164.9155,242.2206 Q164.0561,241.1425 164.0561,239.1269 Q164.0561,237.0956 164.9155,236.0331 Q165.7749,234.955 167.3843,234.955 Q167.853,234.955 168.2593,235.0644 Q168.6811,235.1581 169.0561,235.3456 L169.0561,237.1112 Q168.6343,236.7362 168.2436,236.5644 Q167.8686,236.3925 167.4624,236.3925 Q166.603,236.3925 166.1499,237.08 Q165.7124,237.7675 165.7124,239.1269 Q165.7124,240.4862 166.1499,241.1737 Q166.603,241.8612 167.4624,241.8612 Q167.8686,241.8612 168.2436,241.6894 Q168.6343,241.5175 169.0561,241.1269 L169.0561,242.8925 Z " fill="#000000"/><text fill="#000000" font-family="sans-serif" font-size="11" lengthAdjust="spacing" textLength="36.2388" x="185.2436" y="242.935">Listing</text><line style="stroke:#333333;stroke-width:0.5;" x1="125.77" x2="253.456" y1="253.1269" y2="253.1269"/><text fill="#000000" font-family="sans-serif" font-size="11" lengthAdjust="spacing" textLength="45.0581" x="130.77" y="267.3373">id: UUID</text><text fill="#000000" font-family="sans-serif" font-size="11" lengthAdjust="spacing" textLength="61.5366" x="130.77" y="280.142">title: String</text><text fill="#000000" font-family="sans-serif" font-size="11" lengthAdjust="spacing" textLength="101.1914" x="130.77" y="292.9467">description: String</text><text fill="#000000" font-family="sans-serif" font-size="11" lengthAdjust="spacing" textLength="97.0181" x="130.77" y="305.7514">price: BigDecimal</text><text fill="#000000" font-family="sans-serif" font-size="11" lengthAdjust="spacing" textLength="88.6445" x="130.77" y="318.5561">category: String</text><text fill="#000000" font-family="sans-serif" font-size="11" lengthAdjust="spacing" textLength="90.8896" x="130.77" y="331.3608">condition: String</text><text fill="#000000" font-family="sans-serif" font-size="11" lengthAdjust="spacing" textLength="73.8311" x="130.77" y="344.1654">status: String</text><text fill="#000000" font-family="sans-serif" font-size="11" lengthAdjust="spacing" textLength="117.686" x="130.77" y="356.9701">images: List&lt;String&gt;</text><text fill="#000000" font-family="sans-serif" font-size="11" lengthAdjust="spacing" textLength="62.1758" x="130.77" y="369.7748">seller: User</text><line style="stroke:#333333;stroke-width:0.5;" x1="125.77" x2="253.456" y1="376.3691" y2="376.3691"/></g><!--class Conversation--><g class="entity" data-entity="Conversation" data-source-line="35" data-uid="ent0005" id="entity_Conversation"><rect fill="#FFFACD" height="95.2188" rx="2.5" ry="2.5" style="stroke:#333333;stroke-width:0.5;" width="100.7246" x="101.25" y="444.3669"/><ellipse cx="114.25" cy="458.3669" fill="#ADD1B2" rx="9" ry="9" style="stroke:#181818;stroke-width:1;"/><path d="M115.5625,462.1325 Q115.1875,462.3356 114.7656,462.4294 Q114.3594,462.5231 113.8906,462.5231 Q112.2813,462.5231 111.4219,461.4606 Q110.5625,460.3825 110.5625,458.3669 Q110.5625,456.3356 111.4219,455.2731 Q112.2813,454.195 113.8906,454.195 Q114.3594,454.195 114.7656,454.3044 Q115.1875,454.3981 115.5625,454.5856 L115.5625,456.3512 Q115.1406,455.9762 114.75,455.8044 Q114.375,455.6325 113.9688,455.6325 Q113.1094,455.6325 112.6563,456.32 Q112.2188,457.0075 112.2188,458.3669 Q112.2188,459.7262 112.6563,460.4137 Q113.1094,461.1012 113.9688,461.1012 Q114.375,461.1012 114.75,460.9294 Q115.1406,460.7575 115.5625,460.3669 L115.5625,462.1325 Z " fill="#000000"/><text fill="#000000" font-family="sans-serif" font-size="11" lengthAdjust="spacing" textLength="72.7246" x="126.25" y="462.175">Conversation</text><line style="stroke:#333333;stroke-width:0.5;" x1="102.25" x2="200.9746" y1="472.3669" y2="472.3669"/><text fill="#000000" font-family="sans-serif" font-size="11" lengthAdjust="spacing" textLength="45.0581" x="107.25" y="486.5773">id: UUID</text><text fill="#000000" font-family="sans-serif" font-size="11" lengthAdjust="spacing" textLength="76.6079" x="107.25" y="499.382">listing: Listing</text><text fill="#000000" font-family="sans-serif" font-size="11" lengthAdjust="spacing" textLength="64.0288" x="107.25" y="512.1867">buyer: User</text><text fill="#000000" font-family="sans-serif" font-size="11" lengthAdjust="spacing" textLength="62.1758" x="107.25" y="524.9914">seller: User</text><line style="stroke:#333333;stroke-width:0.5;" x1="102.25" x2="200.9746" y1="531.5856" y2="531.5856"/></g><!--class Message--><g class="entity" data-entity="Message" data-source-line="42" data-uid="ent0006" id="entity_Message"><rect fill="#FFFACD" height="108.0234" rx="2.5" ry="2.5" style="stroke:#333333;stroke-width:0.5;" width="163.019" x="183.1" y="599.5869"/><ellipse cx="236.7541" cy="613.5869" fill="#ADD1B2" rx="9" ry="9" style="stroke:#181818;stroke-width:1;"/><path d="M238.0666,617.3525 Q237.6916,617.5556 237.2697,617.6494 Q236.8634,617.7431 236.3947,617.7431 Q234.7853,617.7431 233.9259,616.6806 Q233.0666,615.6025 233.0666,613.5869 Q233.0666,611.5556 233.9259,610.4931 Q234.7853,609.415 236.3947,609.415 Q236.8634,609.415 237.2697,609.5244 Q237.6916,609.6181 238.0666,609.8056 L238.0666,611.5713 Q237.6447,611.1963 237.2541,611.0244 Q236.8791,610.8525 236.4728,610.8525 Q235.6134,610.8525 235.1603,611.54 Q234.7228,612.2275 234.7228,613.5869 Q234.7228,614.9463 235.1603,615.6338 Q235.6134,616.3213 236.4728,616.3213 Q236.8791,616.3213 237.2541,616.1494 Q237.6447,615.9775 238.0666,615.5869 L238.0666,617.3525 Z " fill="#000000"/><text fill="#000000" font-family="sans-serif" font-size="11" lengthAdjust="spacing" textLength="48.2109" x="254.2541" y="617.395">Message</text><line style="stroke:#333333;stroke-width:0.5;" x1="184.1" x2="345.119" y1="627.5869" y2="627.5869"/><text fill="#000000" font-family="sans-serif" font-size="11" lengthAdjust="spacing" textLength="45.0581" x="189.1" y="641.7973">id: UUID</text><text fill="#000000" font-family="sans-serif" font-size="11" lengthAdjust="spacing" textLength="151.019" x="189.1" y="654.602">conversation: Conversation</text><text fill="#000000" font-family="sans-serif" font-size="11" lengthAdjust="spacing" textLength="70.0176" x="189.1" y="667.4067">sender: User</text><text fill="#000000" font-family="sans-serif" font-size="11" lengthAdjust="spacing" textLength="82.1455" x="189.1" y="680.2114">content: String</text><text fill="#000000" font-family="sans-serif" font-size="11" lengthAdjust="spacing" textLength="88.666" x="189.1" y="693.0161">isRead: Boolean</text><line style="stroke:#333333;stroke-width:0.5;" x1="184.1" x2="345.119" y1="699.6103" y2="699.6103"/></g><!--class Favorite--><g class="entity" data-entity="Favorite" data-source-line="50" data-uid="ent0007" id="entity_Favorite"><rect fill="#FFE4B5" height="82.4141" rx="2.5" ry="2.5" style="stroke:#333333;stroke-width:0.5;" width="88.6079" x="237.31" y="450.7669"/><ellipse cx="257.3485" cy="464.7669" fill="#ADD1B2" rx="9" ry="9" style="stroke:#181818;stroke-width:1;"/><path d="M258.661,468.5325 Q258.286,468.7356 257.8641,468.8294 Q257.4579,468.9231 256.9891,468.9231 Q255.3798,468.9231 254.5204,467.8606 Q253.661,466.7825 253.661,464.7669 Q253.661,462.7356 254.5204,461.6731 Q255.3798,460.595 256.9891,460.595 Q257.4579,460.595 257.8641,460.7044 Q258.286,460.7981 258.661,460.9856 L258.661,462.7512 Q258.2391,462.3762 257.8485,462.2044 Q257.4735,462.0325 257.0673,462.0325 Q256.2079,462.0325 255.7548,462.72 Q255.3173,463.4075 255.3173,464.7669 Q255.3173,466.1262 255.7548,466.8137 Q256.2079,467.5012 257.0673,467.5012 Q257.4735,467.5012 257.8485,467.3294 Q258.2391,467.1575 258.661,466.7669 L258.661,468.5325 Z " fill="#000000"/><text fill="#000000" font-family="sans-serif" font-size="11" lengthAdjust="spacing" textLength="44.9668" x="270.9126" y="468.575">Favorite</text><line style="stroke:#333333;stroke-width:0.5;" x1="238.31" x2="324.9179" y1="478.7669" y2="478.7669"/><text fill="#000000" font-family="sans-serif" font-size="11" lengthAdjust="spacing" textLength="45.0581" x="243.31" y="492.9773">id: UUID</text><text fill="#000000" font-family="sans-serif" font-size="11" lengthAdjust="spacing" textLength="56.2676" x="243.31" y="505.782">user: User</text><text fill="#000000" font-family="sans-serif" font-size="11" lengthAdjust="spacing" textLength="76.6079" x="243.31" y="518.5867">listing: Listing</text><line style="stroke:#333333;stroke-width:0.5;" x1="238.31" x2="324.9179" y1="525.1809" y2="525.1809"/></g><!--class Report--><g class="entity" data-entity="Report" data-source-line="56" data-uid="ent0008" id="entity_Report"><rect fill="#F08080" height="108.0234" rx="2.5" ry="2.5" style="stroke:#333333;stroke-width:0.5;" width="90.8853" x="431.17" y="250.7269"/><ellipse cx="455.837" cy="264.7269" fill="#ADD1B2" rx="9" ry="9" style="stroke:#181818;stroke-width:1;"/><path d="M457.1495,268.4925 Q456.7745,268.6956 456.3527,268.7894 Q455.9464,268.8831 455.4777,268.8831 Q453.8683,268.8831 453.0089,267.8206 Q452.1495,266.7425 452.1495,264.7269 Q452.1495,262.6956 453.0089,261.6331 Q453.8683,260.555 455.4777,260.555 Q455.9464,260.555 456.3527,260.6644 Q456.7745,260.7581 457.1495,260.9456 L457.1495,262.7112 Q456.7277,262.3362 456.337,262.1644 Q455.962,261.9925 455.5558,261.9925 Q454.6964,261.9925 454.2433,262.68 Q453.8058,263.3675 453.8058,264.7269 Q453.8058,266.0862 454.2433,266.7737 Q454.6964,267.4612 455.5558,267.4612 Q455.962,267.4612 456.337,267.2894 Q456.7277,267.1175 457.1495,266.7269 L457.1495,268.4925 Z " fill="#000000"/><text fill="#000000" font-family="sans-serif" font-size="11" lengthAdjust="spacing" textLength="36.9585" x="470.4297" y="268.535">Report</text><line style="stroke:#333333;stroke-width:0.5;" x1="432.17" x2="521.0553" y1="278.7269" y2="278.7269"/><text fill="#000000" font-family="sans-serif" font-size="11" lengthAdjust="spacing" textLength="45.0581" x="437.17" y="292.9373">id: UUID</text><text fill="#000000" font-family="sans-serif" font-size="11" lengthAdjust="spacing" textLength="77.4028" x="437.17" y="305.742">reporter: User</text><text fill="#000000" font-family="sans-serif" font-size="11" lengthAdjust="spacing" textLength="78.8853" x="437.17" y="318.5467">targetId: UUID</text><text fill="#000000" font-family="sans-serif" font-size="11" lengthAdjust="spacing" textLength="77.4941" x="437.17" y="331.3514">reason: String</text><text fill="#000000" font-family="sans-serif" font-size="11" lengthAdjust="spacing" textLength="73.8311" x="437.17" y="344.1561">status: String</text><line style="stroke:#333333;stroke-width:0.5;" x1="432.17" x2="521.0553" y1="350.7503" y2="350.7503"/></g><!--class RefreshToken--><g class="entity" data-entity="RefreshToken" data-source-line="64" data-uid="ent0009" id="entity_RefreshToken"><rect fill="#DDA0DD" height="95.2188" rx="2.5" ry="2.5" style="stroke:#333333;stroke-width:0.5;" width="133.3921" x="556.92" y="257.1369"/><ellipse cx="583.2209" cy="271.1369" fill="#ADD1B2" rx="9" ry="9" style="stroke:#181818;stroke-width:1;"/><path d="M584.5334,274.9025 Q584.1584,275.1056 583.7366,275.1994 Q583.3303,275.2931 582.8616,275.2931 Q581.2522,275.2931 580.3928,274.2306 Q579.5334,273.1525 579.5334,271.1369 Q579.5334,269.1056 580.3928,268.0431 Q581.2522,266.965 582.8616,266.965 Q583.3303,266.965 583.7366,267.0744 Q584.1584,267.1681 584.5334,267.3556 L584.5334,269.1212 Q584.1116,268.7462 583.7209,268.5744 Q583.3459,268.4025 582.9397,268.4025 Q582.0803,268.4025 581.6272,269.09 Q581.1897,269.7775 581.1897,271.1369 Q581.1897,272.4962 581.6272,273.1837 Q582.0803,273.8712 582.9397,273.8712 Q583.3459,273.8712 583.7209,273.6994 Q584.1116,273.5275 584.5334,273.1369 L584.5334,274.9025 Z " fill="#000000"/><text fill="#000000" font-family="sans-serif" font-size="11" lengthAdjust="spacing" textLength="75.8345" x="598.1767" y="274.945">RefreshToken</text><line style="stroke:#333333;stroke-width:0.5;" x1="557.92" x2="689.3121" y1="285.1369" y2="285.1369"/><text fill="#000000" font-family="sans-serif" font-size="11" lengthAdjust="spacing" textLength="45.0581" x="562.92" y="299.3473">id: UUID</text><text fill="#000000" font-family="sans-serif" font-size="11" lengthAdjust="spacing" textLength="56.2676" x="562.92" y="312.152">user: User</text><text fill="#000000" font-family="sans-serif" font-size="11" lengthAdjust="spacing" textLength="71.1831" x="562.92" y="324.9567">token: String</text><text fill="#000000" font-family="sans-serif" font-size="11" lengthAdjust="spacing" textLength="121.3921" x="562.92" y="337.7614">expiryDate: DateTime</text><line style="stroke:#333333;stroke-width:0.5;" x1="557.92" x2="689.3121" y1="344.3556" y2="344.3556"/></g><!--link User to Role--><g class="link" data-entity-1="User" data-entity-2="Role" data-source-line="71" data-uid="lnk10" id="link_User_Role"><path codeLine="71" d="M288.69,105.6069 C203.81,105.6069 48.61,105.6069 48.61,105.6069 C48.61,105.6069 48.61,200.4369 48.61,257.5969" fill="none" id="User-to-Role" style="stroke:#181818;stroke-width:1;"/><polygon fill="none" points="48.61,269.5969,52.61,263.5969,48.61,257.5969,44.61,263.5969,48.61,269.5969" style="stroke:#181818;stroke-width:1;"/><text fill="#000000" font-family="sans-serif" font-size="11" lengthAdjust="spacing" textLength="6.9985" x="274.0507" y="103.0974">1</text><text fill="#000000" font-family="sans-serif" font-size="11" lengthAdjust="spacing" textLength="5.5" x="43.1453" y="259.4042">*</text></g><!--link User to Listing--><g class="link" data-entity-1="User" data-entity-2="Listing" data-source-line="72" data-uid="lnk11" id="link_User_Listing"><path codeLine="72" d="M301.31,165.3869 C301.31,200.8169 301.31,238.6069 301.31,238.6069 C301.31,238.6069 291.35,238.6069 266.91,238.6069" fill="none" id="User-to-Listing" style="stroke:#181818;stroke-width:1;"/><polygon fill="none" points="254.91,238.6069,260.91,242.6069,266.91,238.6069,260.91,234.6069,254.91,238.6069" style="stroke:#181818;stroke-width:1;"/><text fill="#000000" font-family="sans-serif" font-size="11" lengthAdjust="spacing" textLength="24.3418" x="276.31" y="222.4073">sells</text><text fill="#000000" font-family="sans-serif" font-size="11" lengthAdjust="spacing" textLength="6.9985" x="290.2456" y="183.3533">1</text><text fill="#000000" font-family="sans-serif" font-size="11" lengthAdjust="spacing" textLength="5.5" x="262.3526" y="228.9709">*</text></g><!--link User to Favorite--><g class="link" data-entity-1="User" data-entity-2="Favorite" data-source-line="73" data-uid="lnk12" id="link_User_Favorite"><path codeLine="73" d="M313.61,165.2169 C313.61,244.5669 313.61,369.7269 313.61,438.3469" fill="none" id="User-to-Favorite" style="stroke:#181818;stroke-width:1;"/><polygon fill="none" points="313.61,450.3469,317.61,444.3469,313.61,438.3469,309.61,444.3469,313.61,450.3469" style="stroke:#181818;stroke-width:1;"/><text fill="#000000" font-family="sans-serif" font-size="11" lengthAdjust="spacing" textLength="6.9985" x="303.9678" y="183.1636">1</text><text fill="#000000" font-family="sans-serif" font-size="11" lengthAdjust="spacing" textLength="5.5" x="313.9085" y="440.1454">*</text></g><!--link User to Message--><g class="link" data-entity-1="User" data-entity-2="Message" data-source-line="74" data-uid="lnk13" id="link_User_Message"><path codeLine="74" d="M336.02,165.5469 C336.02,273.4269 336.02,484.5469 336.02,587.4469" fill="none" id="User-to-Message" style="stroke:#181818;stroke-width:1;"/><polygon fill="none" points="336.02,599.4469,340.02,593.4469,336.02,587.4469,332.02,593.4469,336.02,599.4469" style="stroke:#181818;stroke-width:1;"/><text fill="#000000" font-family="sans-serif" font-size="11" lengthAdjust="spacing" textLength="32.1836" x="303.02" y="379.7073">sends</text><text fill="#000000" font-family="sans-serif" font-size="11" lengthAdjust="spacing" textLength="6.9985" x="328.969" y="183.5318">1</text><text fill="#000000" font-family="sans-serif" font-size="11" lengthAdjust="spacing" textLength="5.5" x="341.1779" y="588.8816">*</text></g><!--link User to Report--><g class="link" data-entity-1="User" data-entity-2="Report" data-source-line="75" data-uid="lnk14" id="link_User_Report"><path codeLine="75" d="M371.17,165.5269 C371.17,224.6569 371.17,305.6069 371.17,305.6069 C371.17,305.6069 390.26,305.6069 418.67,305.6069" fill="none" id="User-to-Report" style="stroke:#181818;stroke-width:1;"/><polygon fill="none" points="430.67,305.6069,424.67,301.6069,418.67,305.6069,424.67,309.6069,430.67,305.6069" style="stroke:#181818;stroke-width:1;"/><text fill="#000000" font-family="sans-serif" font-size="11" lengthAdjust="spacing" textLength="43.5005" x="327.17" y="262.5273">submits</text><text fill="#000000" font-family="sans-serif" font-size="11" lengthAdjust="spacing" textLength="6.9985" x="368.1832" y="183.5094">1</text><text fill="#000000" font-family="sans-serif" font-size="11" lengthAdjust="spacing" textLength="5.5" x="417.6881" y="303.034">*</text></g><!--link User to RefreshToken--><g class="link" data-entity-1="User" data-entity-2="RefreshToken" data-source-line="76" data-uid="lnk15" id="link_User_RefreshToken"><path codeLine="76" d="M396.46,105.6069 C478.05,105.6069 623.61,105.6069 623.61,105.6069 C623.61,105.6069 623.61,185.8669 623.61,244.7969" fill="none" id="User-to-RefreshToken" style="stroke:#181818;stroke-width:1;"/><polygon fill="none" points="623.61,256.7969,627.61,250.7969,623.61,244.7969,619.61,250.7969,623.61,256.7969" style="stroke:#181818;stroke-width:1;"/><text fill="#000000" font-family="sans-serif" font-size="11" lengthAdjust="spacing" textLength="6.9985" x="404.1664" y="103.1855">1</text><text fill="#000000" font-family="sans-serif" font-size="11" lengthAdjust="spacing" textLength="5.5" x="618.2504" y="246.4733">*</text></g><!--link Listing to Favorite--><g class="link" data-entity-1="Listing" data-entity-2="Favorite" data-source-line="78" data-uid="lnk16" id="link_Listing_Favorite"><path codeLine="78" d="M245.88,384.6869 C245.88,407.3469 245.88,419.1069 245.88,438.4869" fill="none" id="Listing-to-Favorite" style="stroke:#181818;stroke-width:1;"/><polygon fill="none" points="245.88,450.4869,249.88,444.4869,245.88,438.4869,241.88,444.4869,245.88,450.4869" style="stroke:#181818;stroke-width:1;"/><text fill="#000000" font-family="sans-serif" font-size="11" lengthAdjust="spacing" textLength="6.9985" x="244.6686" y="402.5871">1</text><text fill="#000000" font-family="sans-serif" font-size="11" lengthAdjust="spacing" textLength="5.5" x="234.1141" y="440.3104">*</text></g><!--link Listing to Conversation--><g class="link" data-entity-1="Listing" data-entity-2="Conversation" data-source-line="79" data-uid="lnk17" id="link_Listing_Conversation"><path codeLine="79" d="M163.37,384.6869 C163.37,404.8669 163.37,413.9069 163.37,431.9569" fill="none" id="Listing-to-Conversation" style="stroke:#181818;stroke-width:1;"/><polygon fill="none" points="163.37,443.9569,167.37,437.9569,163.37,431.9569,159.37,437.9569,163.37,443.9569" style="stroke:#181818;stroke-width:1;"/><text fill="#000000" font-family="sans-serif" font-size="11" lengthAdjust="spacing" textLength="6.9985" x="154.81" y="402.5871">1</text><text fill="#000000" font-family="sans-serif" font-size="11" lengthAdjust="spacing" textLength="5.5" x="159.8853" y="433.6221">*</text></g><!--link Conversation to Message--><g class="link" data-entity-1="Conversation" data-entity-2="Message" data-source-line="81" data-uid="lnk18" id="link_Conversation_Message"><path codeLine="81" d="M192.54,540.0269 C192.54,558.6369 192.54,568.0369 192.54,587.2069" fill="none" id="Conversation-to-Message" style="stroke:#181818;stroke-width:1;"/><polygon fill="none" points="192.54,599.2069,196.54,593.2069,192.54,587.2069,188.54,593.2069,192.54,599.2069" style="stroke:#181818;stroke-width:1;"/><text fill="#000000" font-family="sans-serif" font-size="11" lengthAdjust="spacing" textLength="6.9985" x="191.9438" y="557.8948">1</text><text fill="#000000" font-family="sans-serif" font-size="11" lengthAdjust="spacing" textLength="5.5" x="177.0888" y="588.9813">*</text></g><!--SRC=[ZLDTQzim57tthn3fso2Gi7QqfXGIouR2keUq-G6AVUE8o9AHhhjbO_zzrqgSMBKRPaE8ppqwzzmFkRtKjR2YOXkHxqjh6bqaHXdBVkuaGkJEyLm9vvOVI3TPshu3ch45s1Fbgtzwb0Aseb6O6OslyZUm-RmNL5837cfWnkBEH15ALC0IKTMDOo_2xW5h9N9WKvQkMD9cOroAaiv6aK_ErWuexOBp-_GR-nCnUcGHi_NwcVkFXk9QL12pLxHIbnw4IaWL85jf7VxuoACCGz0Q1OuGmCSL_NsA_dPUsizhNW8VvrFVfKC2sCt3B4qVPcC7VLy24mMutCeQfT41NbkP4tCfImwvh8JoQ2uGIcCF0JKtkf030OS26nT095Es5RT67u_uqv4BIe6D_GmkzIH6luDrefMcdScoHSB7YbB7kkEk0HxSD8UpukSfNi0vydHDFU-vY0DF9rrT18c8Zw0nBDojG93eqj1WXRxapyIxiNHZMWFfxVBkiyNhwG-glMmDrBJ-93MxftTCodf688V2be3F8KkuwyFifTnQSBitimSQ4UUB6UV_KGEs_F0Y_QgbFN1QhvYrls-oWZQDlvMJ-OHDfuPDlapyrHYYtUh7VivkIEWQFOnqAn3xKOuSFRMLuiscaZZAk7GXYZele-d7Wi5EHS7MZnZz1m00]--></g></svg>