<svg xmlns="http://www.w3.org/2000/svg" xmlns:xlink="http://www.w3.org/1999/xlink" contentStyleType="text/css" data-diagram-type="CLASS" height="939px" preserveAspectRatio="none" style="width:1628px;height:939px;background:#FFFFFF;" version="1.1" viewBox="0 0 1628 939" width="1628px" zoomAndPan="magnify"><title>Campus Marketplace - Class Diagram</title><defs/><g><g class="title" data-source-line="11"><text fill="#000000" font-family="Arial" font-size="14" font-weight="bold" lengthAdjust="spacing" textLength="293.7949" x="660.1025" y="22.9951">Campus Marketplace - Class Diagram</text></g><!--cluster Enumerations--><g class="cluster" data-entity="Enumerations" data-source-line="14" data-uid="ent0002" id="cluster_Enumerations"><path d="M8.5,93.8669 L87.6006,93.8669 A3.75,3.75 0 0 1 90.1006,96.3669 L97.1006,111.5075 L421.5,111.5075 A2.5,2.5 0 0 1 424,114.0075 L424,527.6369 A2.5,2.5 0 0 1 421.5,530.1369 L8.5,530.1369 A2.5,2.5 0 0 1 6,527.6369 L6,96.3669 A2.5,2.5 0 0 1 8.5,93.8669" fill="#EFEFEF" style="stroke:#000000;stroke-width:1.5;"/><line style="stroke:#000000;stroke-width:1.5;" x1="6" x2="97.1006" y1="111.5075" y2="111.5075"/><text fill="#000000" font-family="Arial" font-size="10" font-weight="bold" lengthAdjust="spacing" textLength="78.1006" x="10" y="105.1491">Enumerations</text></g><!--cluster Core Entities--><g class="cluster" data-entity="Core Entities" data-source-line="56" data-uid="ent0008" id="cluster_Core Entities"><path d="M497.5,43.2969 L571.0049,43.2969 A3.75,3.75 0 0 1 573.5049,45.7969 L580.5049,60.9375 L827.5,60.9375 A2.5,2.5 0 0 1 830,63.4375 L830,595.6569 A2.5,2.5 0 0 1 827.5,598.1569 L497.5,598.1569 A2.5,2.5 0 0 1 495,595.6569 L495,45.7969 A2.5,2.5 0 0 1 497.5,43.2969" fill="#E3F2FD" style="stroke:#000000;stroke-width:1.5;"/><line style="stroke:#000000;stroke-width:1.5;" x1="495" x2="580.5049" y1="60.9375" y2="60.9375"/><text fill="#000000" font-family="Arial" font-size="10" font-weight="bold" lengthAdjust="spacing" textLength="72.5049" x="499" y="54.5791">Core Entities</text></g><!--cluster Communication--><g class="cluster" data-entity="Communication" data-source-line="104" data-uid="ent0012" id="cluster_Communication"><path d="M375.5,622.1569 L464.0879,622.1569 A3.75,3.75 0 0 1 466.5879,624.6569 L473.5879,639.7975 L586.5,639.7975 A2.5,2.5 0 0 1 589,642.2975 L589,930.0669 A2.5,2.5 0 0 1 586.5,932.5669 L375.5,932.5669 A2.5,2.5 0 0 1 373,930.0669 L373,624.6569 A2.5,2.5 0 0 1 375.5,622.1569" fill="#E8F5E9" style="stroke:#000000;stroke-width:1.5;"/><line style="stroke:#000000;stroke-width:1.5;" x1="373" x2="473.5879" y1="639.7975" y2="639.7975"/><text fill="#000000" font-family="Arial" font-size="10" font-weight="bold" lengthAdjust="spacing" textLength="87.5879" x="377" y="633.4391">Communication</text></g><!--cluster User Engagement--><g class="cluster" data-entity="User Engagement" data-source-line="125" data-uid="ent0015" id="cluster_User Engagement"><path d="M615.5,631.9769 L716.666,631.9769 A3.75,3.75 0 0 1 719.166,634.4769 L726.166,649.6175 L969.5,649.6175 A2.5,2.5 0 0 1 972,652.1175 L972,758.0469 A2.5,2.5 0 0 1 969.5,760.5469 L615.5,760.5469 A2.5,2.5 0 0 1 613,758.0469 L613,634.4769 A2.5,2.5 0 0 1 615.5,631.9769" fill="#FFF3E0" style="stroke:#000000;stroke-width:1.5;"/><line style="stroke:#000000;stroke-width:1.5;" x1="613" x2="726.166" y1="649.6175" y2="649.6175"/><text fill="#000000" font-family="Arial" font-size="10" font-weight="bold" lengthAdjust="spacing" textLength="100.166" x="617" y="643.2591">User Engagement</text></g><!--cluster Moderation--><g class="cluster" data-entity="Moderation" data-source-line="140" data-uid="ent0018" id="cluster_Moderation"><path d="M1048.5,356.8369 L1114.1387,356.8369 A3.75,3.75 0 0 1 1116.6387,359.3369 L1123.6387,374.4775 L1410.5,374.4775 A2.5,2.5 0 0 1 1413,376.9775 L1413,572.3769 A2.5,2.5 0 0 1 1410.5,574.8769 L1048.5,574.8769 A2.5,2.5 0 0 1 1046,572.3769 L1046,359.3369 A2.5,2.5 0 0 1 1048.5,356.8369" fill="#FCE4EC" style="stroke:#000000;stroke-width:1.5;"/><line style="stroke:#000000;stroke-width:1.5;" x1="1046" x2="1123.6387" y1="374.4775" y2="374.4775"/><text fill="#000000" font-family="Arial" font-size="10" font-weight="bold" lengthAdjust="spacing" textLength="64.6387" x="1050" y="368.1191">Moderation</text></g><!--cluster Authentication--><g class="cluster" data-entity="Authentication" data-source-line="170" data-uid="ent0021" id="cluster_Authentication"><path d="M1439.5,385.9369 L1524.2402,385.9369 A3.75,3.75 0 0 1 1526.7402,388.4369 L1533.7402,403.5775 L1618.5,403.5775 A2.5,2.5 0 0 1 1621,406.0775 L1621,543.2769 A2.5,2.5 0 0 1 1618.5,545.7769 L1439.5,545.7769 A2.5,2.5 0 0 1 1437,543.2769 L1437,388.4369 A2.5,2.5 0 0 1 1439.5,385.9369" fill="#F3E5F5" style="stroke:#000000;stroke-width:1.5;"/><line style="stroke:#000000;stroke-width:1.5;" x1="1437" x2="1533.7402" y1="403.5775" y2="403.5775"/><text fill="#000000" font-family="Arial" font-size="10" font-weight="bold" lengthAdjust="spacing" textLength="83.7402" x="1441" y="397.2191">Authentication</text></g><!--class UserRole--><g class="entity" data-entity="UserRole" data-source-line="15" data-uid="ent0003" id="entity_UserRole"><rect fill="#F1F1F1" height="70.9219" rx="2.5" ry="2.5" style="stroke:#181818;stroke-width:0.5;" width="78.5664" x="21.72" y="152.9669"/><ellipse cx="34.72" cy="166.9669" fill="#EB937F" rx="9" ry="9" style="stroke:#181818;stroke-width:1;"/><path d="M36.5794,170.4669 L32.0481,170.4669 L32.0481,163.17 L36.5794,163.17 L36.5794,164.4512 L33.4856,164.4512 L33.4856,166.0137 L36.2825,166.0137 L36.2825,167.295 L33.4856,167.295 L33.4856,169.2012 L36.5794,169.2012 L36.5794,170.4669 Z " fill="#000000"/><text fill="#000000" font-family="Arial" font-size="10" font-weight="bold" lengthAdjust="spacing" textLength="50.5664" x="46.72" y="170.4288">UserRole</text><line style="stroke:#181818;stroke-width:0.5;" x1="22.72" x2="99.2864" y1="180.9669" y2="180.9669"/><text fill="#000000" font-family="Arial" font-size="10" lengthAdjust="spacing" textLength="33.5547" x="27.72" y="194.2491">BUYER</text><text fill="#000000" font-family="Arial" font-size="10" lengthAdjust="spacing" textLength="37.0752" x="27.72" y="205.8897">SELLER</text><text fill="#000000" font-family="Arial" font-size="10" lengthAdjust="spacing" textLength="33.5986" x="27.72" y="217.5304">ADMIN</text></g><!--class ListingCategory--><g class="entity" data-entity="ListingCategory" data-source-line="21" data-uid="ent0004" id="entity_ListingCategory"><rect fill="#F1F1F1" height="129.125" rx="2.5" ry="2.5" style="stroke:#181818;stroke-width:0.5;" width="117.3652" x="135.32" y="123.8669"/><ellipse cx="148.32" cy="137.8669" fill="#EB937F" rx="9" ry="9" style="stroke:#181818;stroke-width:1;"/><path d="M150.1794,141.3669 L145.6481,141.3669 L145.6481,134.07 L150.1794,134.07 L150.1794,135.3512 L147.0856,135.3512 L147.0856,136.9137 L149.8825,136.9137 L149.8825,138.195 L147.0856,138.195 L147.0856,140.1012 L150.1794,140.1012 L150.1794,141.3669 Z " fill="#000000"/><text fill="#000000" font-family="Arial" font-size="10" font-weight="bold" lengthAdjust="spacing" textLength="89.3652" x="160.32" y="141.3288">ListingCategory</text><line style="stroke:#181818;stroke-width:0.5;" x1="136.32" x2="251.6852" y1="151.8669" y2="151.8669"/><text fill="#000000" font-family="Arial" font-size="10" lengthAdjust="spacing" textLength="69.8779" x="141.32" y="165.1491">ELECTRONICS</text><text fill="#000000" font-family="Arial" font-size="10" lengthAdjust="spacing" textLength="35.5078" x="141.32" y="176.7897">BOOKS</text><text fill="#000000" font-family="Arial" font-size="10" lengthAdjust="spacing" textLength="52.2314" x="141.32" y="188.4304">CLOTHING</text><text fill="#000000" font-family="Arial" font-size="10" lengthAdjust="spacing" textLength="57.1436" x="141.32" y="200.071">FURNITURE</text><text fill="#000000" font-family="Arial" font-size="10" lengthAdjust="spacing" textLength="39.6533" x="141.32" y="211.7116">SPORTS</text><text fill="#000000" font-family="Arial" font-size="10" lengthAdjust="spacing" textLength="32.2266" x="141.32" y="223.3522">MUSIC</text><text fill="#000000" font-family="Arial" font-size="10" lengthAdjust="spacing" textLength="35.8838" x="141.32" y="234.9929">GAMES</text><text fill="#000000" font-family="Arial" font-size="10" lengthAdjust="spacing" textLength="34.7656" x="141.32" y="246.6335">OTHER</text></g><!--class ListingCondition--><g class="entity" data-entity="ListingCondition" data-source-line="32" data-uid="ent0005" id="entity_ListingCondition"><rect fill="#F1F1F1" height="94.2031" rx="2.5" ry="2.5" style="stroke:#181818;stroke-width:0.5;" width="120.3486" x="287.83" y="141.3269"/><ellipse cx="300.83" cy="155.3269" fill="#EB937F" rx="9" ry="9" style="stroke:#181818;stroke-width:1;"/><path d="M302.6894,158.8269 L298.1581,158.8269 L298.1581,151.53 L302.6894,151.53 L302.6894,152.8112 L299.5956,152.8112 L299.5956,154.3737 L302.3925,154.3737 L302.3925,155.655 L299.5956,155.655 L299.5956,157.5612 L302.6894,157.5612 L302.6894,158.8269 Z " fill="#000000"/><text fill="#000000" font-family="Arial" font-size="10" font-weight="bold" lengthAdjust="spacing" textLength="92.3486" x="312.83" y="158.7888">ListingCondition</text><line style="stroke:#181818;stroke-width:0.5;" x1="288.83" x2="407.1786" y1="169.3269" y2="169.3269"/><text fill="#000000" font-family="Arial" font-size="10" lengthAdjust="spacing" textLength="23.6865" x="293.83" y="182.6091">NEW</text><text fill="#000000" font-family="Arial" font-size="10" lengthAdjust="spacing" textLength="50.083" x="293.83" y="194.2497">LIKE_NEW</text><text fill="#000000" font-family="Arial" font-size="10" lengthAdjust="spacing" textLength="31.1914" x="293.83" y="205.8904">GOOD</text><text fill="#000000" font-family="Arial" font-size="10" lengthAdjust="spacing" textLength="22.4902" x="293.83" y="217.531">FAIR</text><text fill="#000000" font-family="Arial" font-size="10" lengthAdjust="spacing" textLength="28.7207" x="293.83" y="229.1716">POOR</text></g><!--class ListingStatus--><g class="entity" data-entity="ListingStatus" data-source-line="40" data-uid="ent0006" id="entity_ListingStatus"><rect fill="#F1F1F1" height="82.5625" rx="2.5" ry="2.5" style="stroke:#181818;stroke-width:0.5;" width="102.8193" x="21.59" y="431.5769"/><ellipse cx="34.59" cy="445.5769" fill="#EB937F" rx="9" ry="9" style="stroke:#181818;stroke-width:1;"/><path d="M36.4494,449.0769 L31.9181,449.0769 L31.9181,441.78 L36.4494,441.78 L36.4494,443.0613 L33.3556,443.0613 L33.3556,444.6238 L36.1525,444.6238 L36.1525,445.905 L33.3556,445.905 L33.3556,447.8113 L36.4494,447.8113 L36.4494,449.0769 Z " fill="#000000"/><text fill="#000000" font-family="Arial" font-size="10" font-weight="bold" lengthAdjust="spacing" textLength="74.8193" x="46.59" y="449.0388">ListingStatus</text><line style="stroke:#181818;stroke-width:0.5;" x1="22.59" x2="123.4093" y1="459.5769" y2="459.5769"/><text fill="#000000" font-family="Arial" font-size="10" lengthAdjust="spacing" textLength="36.04" x="27.59" y="472.8591">ACTIVE</text><text fill="#000000" font-family="Arial" font-size="10" lengthAdjust="spacing" textLength="27.4902" x="27.59" y="484.4997">SOLD</text><text fill="#000000" font-family="Arial" font-size="10" lengthAdjust="spacing" textLength="43.1152" x="27.59" y="496.1404">EXPIRED</text><text fill="#000000" font-family="Arial" font-size="10" lengthAdjust="spacing" textLength="46.0352" x="27.59" y="507.781">DELETED</text></g><!--class ReportStatus--><g class="entity" data-entity="ReportStatus" data-source-line="47" data-uid="ent0007" id="entity_ReportStatus"><rect fill="#F1F1F1" height="82.5625" rx="2.5" ry="2.5" style="stroke:#181818;stroke-width:0.5;" width="102.8047" x="159.6" y="431.5769"/><ellipse cx="172.6" cy="445.5769" fill="#EB937F" rx="9" ry="9" style="stroke:#181818;stroke-width:1;"/><path d="M174.4594,449.0769 L169.9281,449.0769 L169.9281,441.78 L174.4594,441.78 L174.4594,443.0613 L171.3656,443.0613 L171.3656,444.6238 L174.1625,444.6238 L174.1625,445.905 L171.3656,445.905 L171.3656,447.8113 L174.4594,447.8113 L174.4594,449.0769 Z " fill="#000000"/><text fill="#000000" font-family="Arial" font-size="10" font-weight="bold" lengthAdjust="spacing" textLength="74.8047" x="184.6" y="449.0388">ReportStatus</text><line style="stroke:#181818;stroke-width:0.5;" x1="160.6" x2="261.4047" y1="459.5769" y2="459.5769"/><text fill="#000000" font-family="Arial" font-size="10" lengthAdjust="spacing" textLength="45.708" x="165.6" y="472.8591">PENDING</text><text fill="#000000" font-family="Arial" font-size="10" lengthAdjust="spacing" textLength="54.5801" x="165.6" y="484.4997">APPROVED</text><text fill="#000000" font-family="Arial" font-size="10" lengthAdjust="spacing" textLength="49.6436" x="165.6" y="496.1404">REJECTED</text><text fill="#000000" font-family="Arial" font-size="10" lengthAdjust="spacing" textLength="47.6807" x="165.6" y="507.781">FLAGGED</text></g><!--class User--><g class="entity" data-entity="User" data-source-line="57" data-uid="ent0009" id="entity_User"><rect fill="#F1F1F1" height="230.25" rx="2.5" ry="2.5" style="stroke:#181818;stroke-width:0.5;" width="152.8838" x="661.56" y="73.2969"/><ellipse cx="721.3588" cy="87.2969" fill="#ADD1B2" rx="9" ry="9" style="stroke:#181818;stroke-width:1;"/><path d="M722.6401,90.5938 Q722.2963,90.7656 721.9213,90.8438 Q721.5463,90.9375 721.1245,90.9375 Q719.6557,90.9375 718.8745,89.9688 Q718.1088,89 718.1088,87.1563 Q718.1088,85.3125 718.8745,84.3438 Q719.6557,83.375 721.1245,83.375 Q721.5463,83.375 721.9213,83.4688 Q722.312,83.5469 722.6401,83.7188 L722.6401,85.3281 Q722.2651,84.9844 721.9057,84.8281 Q721.562,84.6719 721.2026,84.6719 Q720.4057,84.6719 719.9995,85.2969 Q719.5932,85.9219 719.5932,87.1563 Q719.5932,88.3906 719.9995,89.0156 Q720.4057,89.6406 721.2026,89.6406 Q721.562,89.6406 721.9057,89.4844 Q722.2651,89.3281 722.6401,88.9844 L722.6401,90.5938 Z " fill="#000000"/><text fill="#000000" font-family="Arial" font-size="10" font-weight="bold" lengthAdjust="spacing" textLength="25.7861" x="738.8588" y="90.7588">User</text><line style="stroke:#181818;stroke-width:0.5;" x1="662.56" x2="813.4438" y1="101.2969" y2="101.2969"/><text fill="#000000" font-family="Arial" font-size="10" lengthAdjust="spacing" textLength="44.5703" x="667.56" y="114.5791">-id: UUID</text><text fill="#000000" font-family="Arial" font-size="10" lengthAdjust="spacing" textLength="90.1709" x="667.56" y="126.2197">-username: String</text><text fill="#000000" font-family="Arial" font-size="10" lengthAdjust="spacing" textLength="67.5781" x="667.56" y="137.8604">-email: String</text><text fill="#000000" font-family="Arial" font-size="10" lengthAdjust="spacing" textLength="87.6514" x="667.56" y="149.501">-password: String</text><text fill="#000000" font-family="Arial" font-size="10" lengthAdjust="spacing" textLength="89.043" x="667.56" y="161.1416">-firstName: String</text><text fill="#000000" font-family="Arial" font-size="10" lengthAdjust="spacing" textLength="87.5391" x="667.56" y="172.7822">-lastName: String</text><text fill="#000000" font-family="Arial" font-size="10" lengthAdjust="spacing" textLength="71.2939" x="667.56" y="184.4229">-phone: String</text><text fill="#000000" font-family="Arial" font-size="10" lengthAdjust="spacing" textLength="86.543" x="667.56" y="196.0635">-avatarUrl: String</text><text fill="#000000" font-family="Arial" font-size="10" lengthAdjust="spacing" textLength="87.5244" x="667.56" y="207.7041">-studentId: String</text><text fill="#000000" font-family="Arial" font-size="10" lengthAdjust="spacing" textLength="68.877" x="667.56" y="219.3447">-major: String</text><text fill="#000000" font-family="Arial" font-size="10" lengthAdjust="spacing" textLength="123.1836" x="667.56" y="230.9854">-graduationYear: Integer</text><text fill="#000000" font-family="Arial" font-size="10" lengthAdjust="spacing" textLength="89.7461" x="667.56" y="242.626">-isActive: Boolean</text><text fill="#000000" font-family="Arial" font-size="10" lengthAdjust="spacing" textLength="134.0039" x="667.56" y="254.2666">-createdAt: LocalDateTime</text><text fill="#000000" font-family="Arial" font-size="10" lengthAdjust="spacing" textLength="140.8838" x="667.56" y="265.9072">-lastLoginAt: LocalDateTime</text><line style="stroke:#181818;stroke-width:1;" x1="662.56" x2="813.4438" y1="272.2656" y2="272.2656"/><text fill="#000000" font-family="Arial" font-size="10" lengthAdjust="spacing" textLength="116.1426" x="667.56" y="285.5479">+getFullName(): String</text><text fill="#000000" font-family="Arial" font-size="10" lengthAdjust="spacing" textLength="122.0557" x="667.56" y="297.1885">+hasRole(role): Boolean</text></g><!--class Role--><g class="entity" data-entity="Role" data-source-line="77" data-uid="ent0010" id="entity_Role"><rect fill="#F1F1F1" height="70.9219" rx="2.5" ry="2.5" style="stroke:#181818;stroke-width:0.5;" width="107.6006" x="511.2" y="437.3969"/><ellipse cx="548.8691" cy="451.3969" fill="#ADD1B2" rx="9" ry="9" style="stroke:#181818;stroke-width:1;"/><path d="M550.1504,454.6937 Q549.8066,454.8656 549.4316,454.9437 Q549.0566,455.0375 548.6348,455.0375 Q547.166,455.0375 546.3848,454.0687 Q545.6191,453.1 545.6191,451.2562 Q545.6191,449.4125 546.3848,448.4437 Q547.166,447.475 548.6348,447.475 Q549.0566,447.475 549.4316,447.5687 Q549.8223,447.6469 550.1504,447.8187 L550.1504,449.4281 Q549.7754,449.0844 549.416,448.9281 Q549.0723,448.7719 548.7129,448.7719 Q547.916,448.7719 547.5098,449.3969 Q547.1035,450.0219 547.1035,451.2562 Q547.1035,452.4906 547.5098,453.1156 Q547.916,453.7406 548.7129,453.7406 Q549.0723,453.7406 549.416,453.5844 Q549.7754,453.4281 550.1504,453.0844 L550.1504,454.6937 Z " fill="#000000"/><text fill="#000000" font-family="Arial" font-size="10" font-weight="bold" lengthAdjust="spacing" textLength="24.7803" x="566.3512" y="454.8588">Role</text><line style="stroke:#181818;stroke-width:0.5;" x1="512.2" x2="617.8006" y1="465.3969" y2="465.3969"/><text fill="#000000" font-family="Arial" font-size="10" lengthAdjust="spacing" textLength="44.5703" x="517.2" y="478.6791">-id: UUID</text><text fill="#000000" font-family="Arial" font-size="10" lengthAdjust="spacing" textLength="83.3057" x="517.2" y="490.3197">-name: UserRole</text><text fill="#000000" font-family="Arial" font-size="10" lengthAdjust="spacing" textLength="95.6006" x="517.2" y="501.9604">-description: String</text></g><!--class Listing--><g class="entity" data-entity="Listing" data-source-line="83" data-uid="ent0011" id="entity_Listing"><rect fill="#F1F1F1" height="218.6094" rx="2.5" ry="2.5" style="stroke:#181818;stroke-width:0.5;" width="160.5693" x="653.72" y="363.5469"/><ellipse cx="711.136" cy="377.5469" fill="#ADD1B2" rx="9" ry="9" style="stroke:#181818;stroke-width:1;"/><path d="M712.4173,380.8438 Q712.0735,381.0156 711.6985,381.0938 Q711.3235,381.1875 710.9016,381.1875 Q709.4329,381.1875 708.6516,380.2188 Q707.886,379.25 707.886,377.4063 Q707.886,375.5625 708.6516,374.5938 Q709.4329,373.625 710.9016,373.625 Q711.3235,373.625 711.6985,373.7188 Q712.0891,373.7969 712.4173,373.9688 L712.4173,375.5781 Q712.0423,375.2344 711.6829,375.0781 Q711.3391,374.9219 710.9798,374.9219 Q710.1829,374.9219 709.7766,375.5469 Q709.3704,376.1719 709.3704,377.4063 Q709.3704,378.6406 709.7766,379.2656 Q710.1829,379.8906 710.9798,379.8906 Q711.3391,379.8906 711.6829,379.7344 Q712.0423,379.5781 712.4173,379.2344 L712.4173,380.8438 Z " fill="#000000"/><text fill="#000000" font-family="Arial" font-size="10" font-weight="bold" lengthAdjust="spacing" textLength="38.2373" x="728.636" y="381.0088">Listing</text><line style="stroke:#181818;stroke-width:0.5;" x1="654.72" x2="813.2893" y1="391.5469" y2="391.5469"/><text fill="#000000" font-family="Arial" font-size="10" lengthAdjust="spacing" textLength="44.5703" x="659.72" y="404.8291">-id: UUID</text><text fill="#000000" font-family="Arial" font-size="10" lengthAdjust="spacing" textLength="59.5508" x="659.72" y="416.4697">-title: String</text><text fill="#000000" font-family="Arial" font-size="10" lengthAdjust="spacing" textLength="95.6006" x="659.72" y="428.1104">-description: String</text><text fill="#000000" font-family="Arial" font-size="10" lengthAdjust="spacing" textLength="91.8066" x="659.72" y="439.751">-price: BigDecimal</text><text fill="#000000" font-family="Arial" font-size="10" lengthAdjust="spacing" textLength="132.9736" x="659.72" y="451.3916">-category: ListingCategory</text><text fill="#000000" font-family="Arial" font-size="10" lengthAdjust="spacing" textLength="137.0557" x="659.72" y="463.0322">-condition: ListingCondition</text><text fill="#000000" font-family="Arial" font-size="10" lengthAdjust="spacing" textLength="105.6934" x="659.72" y="474.6729">-status: ListingStatus</text><text fill="#000000" font-family="Arial" font-size="10" lengthAdjust="spacing" textLength="110.5957" x="659.72" y="486.3135">-images: List&lt;String&gt;</text><text fill="#000000" font-family="Arial" font-size="10" lengthAdjust="spacing" textLength="79.6777" x="659.72" y="497.9541">-location: String</text><text fill="#000000" font-family="Arial" font-size="10" lengthAdjust="spacing" textLength="98.8525" x="659.72" y="509.5947">-viewCount: Integer</text><text fill="#000000" font-family="Arial" font-size="10" lengthAdjust="spacing" textLength="114.4727" x="659.72" y="521.2354">-favoriteCount: Integer</text><text fill="#000000" font-family="Arial" font-size="10" lengthAdjust="spacing" textLength="134.0039" x="659.72" y="532.876">-createdAt: LocalDateTime</text><text fill="#000000" font-family="Arial" font-size="10" lengthAdjust="spacing" textLength="137.2754" x="659.72" y="544.5166">-updatedAt: LocalDateTime</text><line style="stroke:#181818;stroke-width:1;" x1="654.72" x2="813.2893" y1="550.875" y2="550.875"/><text fill="#000000" font-family="Arial" font-size="10" lengthAdjust="spacing" textLength="117.0605" x="659.72" y="564.1572">+isAvailable(): Boolean</text><text fill="#000000" font-family="Arial" font-size="10" lengthAdjust="spacing" textLength="148.5693" x="659.72" y="575.7979">+incrementViewCount(): void</text></g><!--class Conversation--><g class="entity" data-entity="Conversation" data-source-line="105" data-uid="ent0013" id="entity_Conversation"><rect fill="#F1F1F1" height="102.2031" rx="2.5" ry="2.5" style="stroke:#181818;stroke-width:0.5;" width="184.3242" x="388.84" y="652.1569"/><ellipse cx="440.0231" cy="666.1569" fill="#ADD1B2" rx="9" ry="9" style="stroke:#181818;stroke-width:1;"/><path d="M441.3044,669.4537 Q440.9606,669.6256 440.5856,669.7037 Q440.2106,669.7975 439.7887,669.7975 Q438.32,669.7975 437.5387,668.8287 Q436.7731,667.86 436.7731,666.0162 Q436.7731,664.1725 437.5387,663.2037 Q438.32,662.235 439.7887,662.235 Q440.2106,662.235 440.5856,662.3287 Q440.9762,662.4069 441.3044,662.5787 L441.3044,664.1881 Q440.9294,663.8444 440.57,663.6881 Q440.2262,663.5319 439.8669,663.5319 Q439.07,663.5319 438.6637,664.1569 Q438.2575,664.7819 438.2575,666.0162 Q438.2575,667.2506 438.6637,667.8756 Q439.07,668.5006 439.8669,668.5006 Q440.2262,668.5006 440.57,668.3444 Q440.9294,668.1881 441.3044,667.8444 L441.3044,669.4537 Z " fill="#000000"/><text fill="#000000" font-family="Arial" font-size="10" font-weight="bold" lengthAdjust="spacing" textLength="74.458" x="457.5231" y="669.6188">Conversation</text><line style="stroke:#181818;stroke-width:0.5;" x1="389.84" x2="572.1642" y1="680.1569" y2="680.1569"/><text fill="#000000" font-family="Arial" font-size="10" lengthAdjust="spacing" textLength="44.5703" x="394.84" y="693.4391">-id: UUID</text><text fill="#000000" font-family="Arial" font-size="10" lengthAdjust="spacing" textLength="74.8926" x="394.84" y="705.0797">-listingId: UUID</text><text fill="#000000" font-family="Arial" font-size="10" lengthAdjust="spacing" textLength="134.0039" x="394.84" y="716.7204">-createdAt: LocalDateTime</text><text fill="#000000" font-family="Arial" font-size="10" lengthAdjust="spacing" textLength="137.2754" x="394.84" y="728.361">-updatedAt: LocalDateTime</text><line style="stroke:#181818;stroke-width:1;" x1="389.84" x2="572.1642" y1="734.7194" y2="734.7194"/><text fill="#000000" font-family="Arial" font-size="10" lengthAdjust="spacing" textLength="172.3242" x="394.84" y="748.0016">+getUnreadCount(userId): Integer</text></g><!--class Message--><g class="entity" data-entity="Message" data-source-line="114" data-uid="ent0014" id="entity_Message"><rect fill="#F1F1F1" height="102.2031" rx="2.5" ry="2.5" style="stroke:#181818;stroke-width:0.5;" width="146.0039" x="417" y="814.3669"/><ellipse cx="461.5889" cy="828.3669" fill="#ADD1B2" rx="9" ry="9" style="stroke:#181818;stroke-width:1;"/><path d="M462.8701,831.6637 Q462.5264,831.8356 462.1514,831.9137 Q461.7764,832.0075 461.3545,832.0075 Q459.8857,832.0075 459.1045,831.0387 Q458.3389,830.07 458.3389,828.2262 Q458.3389,826.3825 459.1045,825.4137 Q459.8857,824.445 461.3545,824.445 Q461.7764,824.445 462.1514,824.5387 Q462.542,824.6169 462.8701,824.7887 L462.8701,826.3981 Q462.4951,826.0544 462.1357,825.8981 Q461.792,825.7419 461.4326,825.7419 Q460.6357,825.7419 460.2295,826.3669 Q459.8232,826.9919 459.8232,828.2262 Q459.8232,829.4606 460.2295,830.0856 Q460.6357,830.7106 461.4326,830.7106 Q461.792,830.7106 462.1357,830.5544 Q462.4951,830.3981 462.8701,830.0544 L462.8701,831.6637 Z " fill="#000000"/><text fill="#000000" font-family="Arial" font-size="10" font-weight="bold" lengthAdjust="spacing" textLength="49.3262" x="479.0889" y="831.8288">Message</text><line style="stroke:#181818;stroke-width:0.5;" x1="418" x2="562.0039" y1="842.3669" y2="842.3669"/><text fill="#000000" font-family="Arial" font-size="10" lengthAdjust="spacing" textLength="44.5703" x="423" y="855.6491">-id: UUID</text><text fill="#000000" font-family="Arial" font-size="10" lengthAdjust="spacing" textLength="78.2861" x="423" y="867.2897">-content: String</text><text fill="#000000" font-family="Arial" font-size="10" lengthAdjust="spacing" textLength="84.2139" x="423" y="878.9304">-isRead: Boolean</text><text fill="#000000" font-family="Arial" font-size="10" lengthAdjust="spacing" textLength="134.0039" x="423" y="890.571">-createdAt: LocalDateTime</text><line style="stroke:#181818;stroke-width:1;" x1="418" x2="562.0039" y1="896.9294" y2="896.9294"/><text fill="#000000" font-family="Arial" font-size="10" lengthAdjust="spacing" textLength="107.29" x="423" y="910.2116">+markAsRead(): void</text></g><!--class Favorite--><g class="entity" data-entity="Favorite" data-source-line="126" data-uid="ent0016" id="entity_Favorite"><rect fill="#F1F1F1" height="59.2813" rx="2.5" ry="2.5" style="stroke:#181818;stroke-width:0.5;" width="146.0039" x="629" y="673.6169"/><ellipse cx="674.8071" cy="687.6169" fill="#ADD1B2" rx="9" ry="9" style="stroke:#181818;stroke-width:1;"/><path d="M676.0884,690.9137 Q675.7446,691.0856 675.3696,691.1637 Q674.9946,691.2575 674.5728,691.2575 Q673.104,691.2575 672.3228,690.2887 Q671.5571,689.32 671.5571,687.4762 Q671.5571,685.6325 672.3228,684.6637 Q673.104,683.695 674.5728,683.695 Q674.9946,683.695 675.3696,683.7887 Q675.7603,683.8669 676.0884,684.0387 L676.0884,685.6481 Q675.7134,685.3044 675.354,685.1481 Q675.0103,684.9919 674.6509,684.9919 Q673.854,684.9919 673.4478,685.6169 Q673.0415,686.2419 673.0415,687.4762 Q673.0415,688.7106 673.4478,689.3356 Q673.854,689.9606 674.6509,689.9606 Q675.0103,689.9606 675.354,689.8044 Q675.7134,689.6481 676.0884,689.3044 L676.0884,690.9137 Z " fill="#000000"/><text fill="#000000" font-family="Arial" font-size="10" font-weight="bold" lengthAdjust="spacing" textLength="46.8896" x="692.3071" y="691.0788">Favorite</text><line style="stroke:#181818;stroke-width:0.5;" x1="630" x2="774.0039" y1="701.6169" y2="701.6169"/><text fill="#000000" font-family="Arial" font-size="10" lengthAdjust="spacing" textLength="44.5703" x="635" y="714.8991">-id: UUID</text><text fill="#000000" font-family="Arial" font-size="10" lengthAdjust="spacing" textLength="134.0039" x="635" y="726.5397">-createdAt: LocalDateTime</text></g><!--class SearchHistory--><g class="entity" data-entity="SearchHistory" data-source-line="131" data-uid="ent0017" id="entity_SearchHistory"><rect fill="#F1F1F1" height="82.5625" rx="2.5" ry="2.5" style="stroke:#181818;stroke-width:0.5;" width="146.0039" x="810" y="661.9769"/><ellipse cx="840.2995" cy="675.9769" fill="#ADD1B2" rx="9" ry="9" style="stroke:#181818;stroke-width:1;"/><path d="M841.5808,679.2738 Q841.237,679.4456 840.862,679.5238 Q840.487,679.6175 840.0651,679.6175 Q838.5964,679.6175 837.8151,678.6488 Q837.0495,677.68 837.0495,675.8363 Q837.0495,673.9925 837.8151,673.0238 Q838.5964,672.055 840.0651,672.055 Q840.487,672.055 840.862,672.1488 Q841.2526,672.2269 841.5808,672.3988 L841.5808,674.0081 Q841.2058,673.6644 840.8464,673.5081 Q840.5026,673.3519 840.1433,673.3519 Q839.3464,673.3519 838.9401,673.9769 Q838.5339,674.6019 838.5339,675.8363 Q838.5339,677.0706 838.9401,677.6956 Q839.3464,678.3206 840.1433,678.3206 Q840.5026,678.3206 840.8464,678.1644 Q841.2058,678.0081 841.5808,677.6644 L841.5808,679.2738 Z " fill="#000000"/><text fill="#000000" font-family="Arial" font-size="10" font-weight="bold" lengthAdjust="spacing" textLength="79.5605" x="856.1438" y="679.4388">SearchHistory</text><line style="stroke:#181818;stroke-width:0.5;" x1="811" x2="955.0039" y1="689.9769" y2="689.9769"/><text fill="#000000" font-family="Arial" font-size="10" lengthAdjust="spacing" textLength="44.5703" x="816" y="703.2591">-id: UUID</text><text fill="#000000" font-family="Arial" font-size="10" lengthAdjust="spacing" textLength="103.8281" x="816" y="714.8997">-searchQuery: String</text><text fill="#000000" font-family="Arial" font-size="10" lengthAdjust="spacing" textLength="109.5459" x="816" y="726.5404">-resultsCount: Integer</text><text fill="#000000" font-family="Arial" font-size="10" lengthAdjust="spacing" textLength="134.0039" x="816" y="738.181">-createdAt: LocalDateTime</text></g><!--class Report--><g class="entity" data-entity="Report" data-source-line="141" data-uid="ent0019" id="entity_Report"><rect fill="#F1F1F1" height="172.0469" rx="2.5" ry="2.5" style="stroke:#181818;stroke-width:0.5;" width="153.4844" x="1062.26" y="386.8369"/><ellipse cx="1116.1409" cy="400.8369" fill="#ADD1B2" rx="9" ry="9" style="stroke:#181818;stroke-width:1;"/><path d="M1117.4221,404.1337 Q1117.0784,404.3056 1116.7034,404.3837 Q1116.3284,404.4775 1115.9065,404.4775 Q1114.4377,404.4775 1113.6565,403.5087 Q1112.8909,402.54 1112.8909,400.6962 Q1112.8909,398.8525 1113.6565,397.8837 Q1114.4377,396.915 1115.9065,396.915 Q1116.3284,396.915 1116.7034,397.0087 Q1117.094,397.0869 1117.4221,397.2587 L1117.4221,398.8681 Q1117.0471,398.5244 1116.6877,398.3681 Q1116.344,398.2119 1115.9846,398.2119 Q1115.1877,398.2119 1114.7815,398.8369 Q1114.3752,399.4619 1114.3752,400.6962 Q1114.3752,401.9306 1114.7815,402.5556 Q1115.1877,403.1806 1115.9846,403.1806 Q1116.344,403.1806 1116.6877,403.0244 Q1117.0471,402.8681 1117.4221,402.5244 L1117.4221,404.1337 Z " fill="#000000"/><text fill="#000000" font-family="Arial" font-size="10" font-weight="bold" lengthAdjust="spacing" textLength="38.2227" x="1133.6409" y="404.2988">Report</text><line style="stroke:#181818;stroke-width:0.5;" x1="1063.26" x2="1214.7444" y1="414.8369" y2="414.8369"/><text fill="#000000" font-family="Arial" font-size="10" lengthAdjust="spacing" textLength="44.5703" x="1068.26" y="428.1191">-id: UUID</text><text fill="#000000" font-family="Arial" font-size="10" lengthAdjust="spacing" textLength="95.2881" x="1068.26" y="439.7597">-reportType: String</text><text fill="#000000" font-family="Arial" font-size="10" lengthAdjust="spacing" textLength="75.3223" x="1068.26" y="451.4004">-targetId: UUID</text><text fill="#000000" font-family="Arial" font-size="10" lengthAdjust="spacing" textLength="74.0576" x="1068.26" y="463.041">-reason: String</text><text fill="#000000" font-family="Arial" font-size="10" lengthAdjust="spacing" textLength="95.6006" x="1068.26" y="474.6816">-description: String</text><text fill="#000000" font-family="Arial" font-size="10" lengthAdjust="spacing" textLength="106.3477" x="1068.26" y="486.3222">-status: ReportStatus</text><text fill="#000000" font-family="Arial" font-size="10" lengthAdjust="spacing" textLength="118.7451" x="1068.26" y="497.9629">-resolutionNotes: String</text><text fill="#000000" font-family="Arial" font-size="10" lengthAdjust="spacing" textLength="134.0039" x="1068.26" y="509.6035">-createdAt: LocalDateTime</text><text fill="#000000" font-family="Arial" font-size="10" lengthAdjust="spacing" textLength="141.4844" x="1068.26" y="521.2441">-reviewedAt: LocalDateTime</text><line style="stroke:#181818;stroke-width:1;" x1="1063.26" x2="1214.7444" y1="527.6025" y2="527.6025"/><text fill="#000000" font-family="Arial" font-size="10" lengthAdjust="spacing" textLength="112.7539" x="1068.26" y="540.8847">+approve(notes): void</text><text fill="#000000" font-family="Arial" font-size="10" lengthAdjust="spacing" textLength="100.2441" x="1068.26" y="552.5254">+reject(notes): void</text></g><!--class AuditLog--><g class="entity" data-entity="AuditLog" data-source-line="156" data-uid="ent0020" id="entity_AuditLog"><rect fill="#F1F1F1" height="140.7656" rx="2.5" ry="2.5" style="stroke:#181818;stroke-width:0.5;" width="146.0039" x="1251" y="402.4769"/><ellipse cx="1294.9395" cy="416.4769" fill="#ADD1B2" rx="9" ry="9" style="stroke:#181818;stroke-width:1;"/><path d="M1296.2207,419.7737 Q1295.877,419.9456 1295.502,420.0237 Q1295.127,420.1175 1294.7051,420.1175 Q1293.2363,420.1175 1292.4551,419.1487 Q1291.6895,418.18 1291.6895,416.3362 Q1291.6895,414.4925 1292.4551,413.5237 Q1293.2363,412.555 1294.7051,412.555 Q1295.127,412.555 1295.502,412.6487 Q1295.8926,412.7269 1296.2207,412.8987 L1296.2207,414.5081 Q1295.8457,414.1644 1295.4863,414.0081 Q1295.1426,413.8519 1294.7832,413.8519 Q1293.9863,413.8519 1293.5801,414.4769 Q1293.1738,415.1019 1293.1738,416.3362 Q1293.1738,417.5706 1293.5801,418.1956 Q1293.9863,418.8206 1294.7832,418.8206 Q1295.1426,418.8206 1295.4863,418.6644 Q1295.8457,418.5081 1296.2207,418.1644 L1296.2207,419.7737 Z " fill="#000000"/><text fill="#000000" font-family="Arial" font-size="10" font-weight="bold" lengthAdjust="spacing" textLength="50.625" x="1312.4395" y="419.9388">AuditLog</text><line style="stroke:#181818;stroke-width:0.5;" x1="1252" x2="1396.0039" y1="430.4769" y2="430.4769"/><text fill="#000000" font-family="Arial" font-size="10" lengthAdjust="spacing" textLength="44.5703" x="1257" y="443.7591">-id: UUID</text><text fill="#000000" font-family="Arial" font-size="10" lengthAdjust="spacing" textLength="90.1709" x="1257" y="455.3997">-username: String</text><text fill="#000000" font-family="Arial" font-size="10" lengthAdjust="spacing" textLength="70.7813" x="1257" y="467.0404">-action: String</text><text fill="#000000" font-family="Arial" font-size="10" lengthAdjust="spacing" textLength="94.8291" x="1257" y="478.681">-tableName: String</text><text fill="#000000" font-family="Arial" font-size="10" lengthAdjust="spacing" textLength="77.0801" x="1257" y="490.3216">-recordId: UUID</text><text fill="#000000" font-family="Arial" font-size="10" lengthAdjust="spacing" textLength="83.4961" x="1257" y="501.9622">-oldValues: JSON</text><text fill="#000000" font-family="Arial" font-size="10" lengthAdjust="spacing" textLength="88.9209" x="1257" y="513.6029">-newValues: JSON</text><text fill="#000000" font-family="Arial" font-size="10" lengthAdjust="spacing" textLength="89.3457" x="1257" y="525.2435">-ipAddress: String</text><text fill="#000000" font-family="Arial" font-size="10" lengthAdjust="spacing" textLength="134.0039" x="1257" y="536.8841">-createdAt: LocalDateTime</text></g><!--class RefreshToken--><g class="entity" data-entity="RefreshToken" data-source-line="171" data-uid="ent0022" id="entity_RefreshToken"><rect fill="#F1F1F1" height="113.8438" rx="2.5" ry="2.5" style="stroke:#181818;stroke-width:0.5;" width="152.0586" x="1452.97" y="415.9369"/><ellipse cx="1486.7588" cy="429.9369" fill="#ADD1B2" rx="9" ry="9" style="stroke:#181818;stroke-width:1;"/><path d="M1488.04,433.2338 Q1487.6963,433.4056 1487.3213,433.4838 Q1486.9463,433.5775 1486.5244,433.5775 Q1485.0556,433.5775 1484.2744,432.6088 Q1483.5088,431.64 1483.5088,429.7963 Q1483.5088,427.9525 1484.2744,426.9838 Q1485.0556,426.015 1486.5244,426.015 Q1486.9463,426.015 1487.3213,426.1088 Q1487.7119,426.1869 1488.04,426.3588 L1488.04,427.9681 Q1487.665,427.6244 1487.3056,427.4681 Q1486.9619,427.3119 1486.6025,427.3119 Q1485.8056,427.3119 1485.3994,427.9369 Q1484.9931,428.5619 1484.9931,429.7963 Q1484.9931,431.0306 1485.3994,431.6556 Q1485.8056,432.2806 1486.6025,432.2806 Q1486.9619,432.2806 1487.3056,432.1244 Q1487.665,431.9681 1488.04,431.6244 L1488.04,433.2338 Z " fill="#000000"/><text fill="#000000" font-family="Arial" font-size="10" font-weight="bold" lengthAdjust="spacing" textLength="77.8613" x="1503.3785" y="433.3988">RefreshToken</text><line style="stroke:#181818;stroke-width:0.5;" x1="1453.97" x2="1604.0286" y1="443.9369" y2="443.9369"/><text fill="#000000" font-family="Arial" font-size="10" lengthAdjust="spacing" textLength="44.5703" x="1458.97" y="457.2191">-id: UUID</text><text fill="#000000" font-family="Arial" font-size="10" lengthAdjust="spacing" textLength="68.3203" x="1458.97" y="468.8597">-token: String</text><text fill="#000000" font-family="Arial" font-size="10" lengthAdjust="spacing" textLength="140.0586" x="1458.97" y="480.5004">-expiryDate: LocalDateTime</text><text fill="#000000" font-family="Arial" font-size="10" lengthAdjust="spacing" textLength="91.2402" x="1458.97" y="492.141">-revoked: Boolean</text><line style="stroke:#181818;stroke-width:1;" x1="1453.97" x2="1604.0286" y1="498.4994" y2="498.4994"/><text fill="#000000" font-family="Arial" font-size="10" lengthAdjust="spacing" textLength="109.1846" x="1458.97" y="511.7816">+isExpired(): Boolean</text><text fill="#000000" font-family="Arial" font-size="10" lengthAdjust="spacing" textLength="78.1348" x="1458.97" y="523.4222">+revoke(): void</text></g><!--link User to Role--><g class="link" data-entity-1="User" data-entity-2="Role" data-source-line="185" data-uid="lnk23" id="link_User_Role"><path codeLine="185" d="M661.11,273.5669 C614.91,273.5669 565,273.5669 565,273.5669 C565,273.5669 565,379.9069 565,437.2269" fill="none" id="User-Role" style="stroke:#181818;stroke-width:1;"/><text fill="#000000" font-family="Arial" font-size="10" lengthAdjust="spacing" textLength="17.6758" x="547" y="304.6191">has</text><text fill="#000000" font-family="Arial" font-size="10" lengthAdjust="spacing" textLength="6.3623" x="647.2635" y="279.7207">1</text><text fill="#000000" font-family="Arial" font-size="10" lengthAdjust="spacing" textLength="5" x="559.4843" y="427.0919">*</text></g><!--link User to Listing--><g class="link" data-entity-1="User" data-entity-2="Listing" data-source-line="188" data-uid="lnk24" id="link_User_Listing"><path codeLine="188" d="M737.92,303.7069 C737.92,323.4169 737.92,343.8469 737.92,363.3969" fill="none" id="User-Listing" style="stroke:#181818;stroke-width:1;"/><text fill="#000000" font-family="Arial" font-size="10" lengthAdjust="spacing" textLength="22.1289" x="714.92" y="330.8291">sells</text><text fill="#000000" font-family="Arial" font-size="10" lengthAdjust="spacing" textLength="6.3623" x="731.7342" y="320.7474">1</text><text fill="#000000" font-family="Arial" font-size="10" lengthAdjust="spacing" textLength="5" x="733.0239" y="353.2606">*</text></g><!--link Listing to Favorite--><g class="link" data-entity-1="Listing" data-entity-2="Favorite" data-source-line="191" data-uid="lnk25" id="link_Listing_Favorite"><path codeLine="191" d="M714.36,582.3269 C714.36,615.7669 714.36,649.8469 714.36,673.2769" fill="none" id="Listing-Favorite" style="stroke:#181818;stroke-width:1;"/><text fill="#000000" font-family="Arial" font-size="10" lengthAdjust="spacing" textLength="17.6758" x="696.36" y="625.0791">has</text><text fill="#000000" font-family="Arial" font-size="10" lengthAdjust="spacing" textLength="6.3623" x="706.8507" y="599.3555">1</text><text fill="#000000" font-family="Arial" font-size="10" lengthAdjust="spacing" textLength="5" x="711.6397" y="663.4283">*</text></g><!--link User to Favorite--><g class="link" data-entity-1="User" data-entity-2="Favorite" data-source-line="192" data-uid="lnk26" id="link_User_Favorite"><path codeLine="192" d="M661.38,293.5669 C649.65,293.5669 641.36,293.5669 641.36,293.5669 C641.36,293.5669 641.36,578.5269 641.36,673.1369" fill="none" id="User-Favorite" style="stroke:#181818;stroke-width:1;"/><text fill="#000000" font-family="Arial" font-size="10" lengthAdjust="spacing" textLength="37.1729" x="613.11" y="483.6191">creates</text><text fill="#000000" font-family="Arial" font-size="10" lengthAdjust="spacing" textLength="6.3623" x="647.1877" y="314.2924">1</text><text fill="#000000" font-family="Arial" font-size="10" lengthAdjust="spacing" textLength="5" x="621.7584" y="663.2559">*</text></g><!--link User to Conversation--><g class="link" data-entity-1="User" data-entity-2="Conversation" data-source-line="195" data-uid="lnk27" id="link_User_Conversation"><path codeLine="195" d="M661.21,263.5669 C578.83,263.5669 459.69,263.5669 459.69,263.5669 C459.69,263.5669 459.69,535.9769 459.69,651.9669" fill="none" id="User-Conversation" style="stroke:#181818;stroke-width:1;"/><text fill="#000000" font-family="Arial" font-size="10" lengthAdjust="spacing" textLength="59.3213" x="399.69" y="354.2891">participates</text><text fill="#000000" font-family="Arial" font-size="10" lengthAdjust="spacing" textLength="6.3623" x="647.0001" y="269.0643">1</text><text fill="#000000" font-family="Arial" font-size="10" lengthAdjust="spacing" textLength="5" x="451.1926" y="641.9549">*</text></g><!--link Listing to Conversation--><g class="link" data-entity-1="Listing" data-entity-2="Conversation" data-source-line="196" data-uid="lnk28" id="link_Listing_Conversation"><path codeLine="196" d="M653.49,548.5669 C600.99,548.5669 542.18,548.5669 542.18,548.5669 C542.18,548.5669 542.18,606.7469 542.18,651.7469" fill="none" id="Listing-Conversation" style="stroke:#181818;stroke-width:1;"/><text fill="#000000" font-family="Arial" font-size="10" lengthAdjust="spacing" textLength="28.8525" x="517.24" y="545.8491">about</text><text fill="#000000" font-family="Arial" font-size="10" lengthAdjust="spacing" textLength="6.3623" x="639.2869" y="553.7925">1</text><text fill="#000000" font-family="Arial" font-size="10" lengthAdjust="spacing" textLength="5" x="545.7983" y="641.7026">*</text></g><!--link Conversation to Message--><g class="link" data-entity-1="Conversation" data-entity-2="Message" data-source-line="197" data-uid="lnk29" id="link_Conversation_Message"><path codeLine="197" d="M490,754.5869 C490,773.5169 490,794.9669 490,813.9169" fill="none" id="Conversation-Message" style="stroke:#181818;stroke-width:1;"/><text fill="#000000" font-family="Arial" font-size="10" lengthAdjust="spacing" textLength="42.3291" x="447" y="781.5391">contains</text><text fill="#000000" font-family="Arial" font-size="10" lengthAdjust="spacing" textLength="6.3623" x="484.8303" y="771.5485">1</text><text fill="#000000" font-family="Arial" font-size="10" lengthAdjust="spacing" textLength="5" x="484.6325" y="803.8667">*</text></g><!--link User to Message--><g class="link" data-entity-1="User" data-entity-2="Message" data-source-line="198" data-uid="lnk30" id="link_User_Message"><path codeLine="198" d="M661.26,283.5669 C640.62,283.5669 623.9,283.5669 623.9,283.5669 C623.9,283.5669 623.9,865.5669 623.9,865.5669 C623.9,865.5669 594.48,865.5669 563.22,865.5669" fill="none" id="User-Message" style="stroke:#181818;stroke-width:1;"/><text fill="#000000" font-family="Arial" font-size="10" lengthAdjust="spacing" textLength="29.2578" x="593.9" y="583.5091">sends</text><text fill="#000000" font-family="Arial" font-size="10" lengthAdjust="spacing" textLength="6.3623" x="647.0553" y="303.2611">1</text><text fill="#000000" font-family="Arial" font-size="10" lengthAdjust="spacing" textLength="5" x="571.0284" y="863.3251">*</text></g><!--link User to Report--><g class="link" data-entity-1="User" data-entity-2="Report" data-source-line="201" data-uid="lnk31" id="link_User_Report"><path codeLine="201" d="M814.76,227.5669 C937.57,227.5669 1164.58,227.5669 1164.58,227.5669 C1164.58,227.5669 1164.58,315.7569 1164.58,386.3769" fill="none" id="User-Report" style="stroke:#181818;stroke-width:1;"/><text fill="#000000" font-family="Arial" font-size="10" lengthAdjust="spacing" textLength="39.5459" x="1029.07" y="224.8491">submits</text><text fill="#000000" font-family="Arial" font-size="10" lengthAdjust="spacing" textLength="6.3623" x="822.3792" y="229.0864">1</text><text fill="#000000" font-family="Arial" font-size="10" lengthAdjust="spacing" textLength="5" x="1161.6354" y="376.4954">*</text></g><!--link User to Report--><g class="link" data-entity-1="User" data-entity-2="Report" data-source-line="202" data-uid="lnk32" id="link_User_Report"><path codeLine="202" d="M814.88,265.5669 C924.71,265.5669 1113.42,265.5669 1113.42,265.5669 C1113.42,265.5669 1113.42,329.5669 1113.42,386.4469" fill="none" id="User-Report-1" style="stroke:#181818;stroke-width:1;"/><text fill="#000000" font-family="Arial" font-size="10" lengthAdjust="spacing" textLength="38.501" x="985.59" y="262.8491">reviews</text><text fill="#000000" font-family="Arial" font-size="10" lengthAdjust="spacing" textLength="19.082" x="822.5767" y="270.2585">0..1</text><text fill="#000000" font-family="Arial" font-size="10" lengthAdjust="spacing" textLength="5" x="1105.9189" y="376.5716">*</text></g><!--link User to SearchHistory--><g class="link" data-entity-1="User" data-entity-2="SearchHistory" data-source-line="205" data-uid="lnk33" id="link_User_SearchHistory"><path codeLine="205" d="M814.63,188.5669 C850.4,188.5669 885.22,188.5669 885.22,188.5669 C885.22,188.5669 885.22,539.0469 885.22,661.5769" fill="none" id="User-SearchHistory" style="stroke:#181818;stroke-width:1;"/><text fill="#000000" font-family="Arial" font-size="10" lengthAdjust="spacing" textLength="17.6758" x="867.22" y="387.0591">has</text><text fill="#000000" font-family="Arial" font-size="10" lengthAdjust="spacing" textLength="6.3623" x="822.4862" y="186.3535">1</text><text fill="#000000" font-family="Arial" font-size="10" lengthAdjust="spacing" textLength="5" x="880.1698" y="651.512">*</text></g><!--link User to RefreshToken--><g class="link" data-entity-1="User" data-entity-2="RefreshToken" data-source-line="208" data-uid="lnk34" id="link_User_RefreshToken"><path codeLine="208" d="M814.92,112.5669 C1013.7,112.5669 1529,112.5669 1529,112.5669 C1529,112.5669 1529,314.1769 1529,415.7669" fill="none" id="User-RefreshToken" style="stroke:#181818;stroke-width:1;"/><text fill="#000000" font-family="Arial" font-size="10" lengthAdjust="spacing" textLength="17.6758" x="1305.56" y="109.8491">has</text><text fill="#000000" font-family="Arial" font-size="10" lengthAdjust="spacing" textLength="6.3623" x="822.5545" y="103.1255">1</text><text fill="#000000" font-family="Arial" font-size="10" lengthAdjust="spacing" textLength="5" x="1523.6642" y="405.6814">*</text></g><!--link User to AuditLog--><g class="link" data-entity-1="User" data-entity-2="AuditLog" data-source-line="211" data-uid="lnk35" id="link_User_AuditLog"><path codeLine="211" d="M814.91,150.5669 C973.89,150.5669 1324,150.5669 1324,150.5669 C1324,150.5669 1324,307.2569 1324,402.1269" fill="none" id="User-AuditLog" style="stroke:#181818;stroke-width:1;"/><text fill="#000000" font-family="Arial" font-size="10" lengthAdjust="spacing" textLength="38.9795" x="1156.24" y="147.8491">triggers</text><text fill="#000000" font-family="Arial" font-size="10" lengthAdjust="spacing" textLength="6.3623" x="822.5435" y="144.7474">1</text><text fill="#000000" font-family="Arial" font-size="10" lengthAdjust="spacing" textLength="5" x="1318.7263" y="392.1062">*</text></g><!--SRC=[hLTjRzis4FwkNq5a7vQiSD6k3R0Psm1LfborjkN9LhP-6XY9iTb8ea1IphAX_tr7IROectvPDmT8GjxnUBnxxhcpV6H5IGJ9KP8HALsb1Bkl50qINYpONnIzSkHE9MC5LSybHLoeDJS4SarI_iIA5NeWcQI69AKFfCgKpmir8pb5hc0aiylhwrwRzzsJv74bU5Ma7i-uG4zhfapZjSlrKVMSKNJFizHnrYobYEQbUaOv1JTJwJYAAP1x92yhYQP4F59LPYIXQ80yRGED65c1HSVv5lri-I0yYwSuSfT1E5jODPmIV2KhYgvmKULK4CLu8Q_GDzZNF-Xl1y67WWp5aeg8Wp_DdlwyYp_XQBTQuCd4MBgZQJ2hLr-Spig4IGK1zuYYAowU3MDuWhrb5Cu2Rz5T48OVkvKt2PVlWzbuj-77qInOnX7kV9Y7qR8xCOqNWRTRZTqfxcHWg_NMvXylKgPZOJWumx_j_fy47_4VviOu34UTNsxGnM4UXaUlMIYY8BNT7Qwt3EwCvuIJpYh-VHv4k5kF86BBTctQZcW9G3ymFSUpaHayTpwFmZl3NeG_G0QC3N_YZiUx2xuSHPaNHXYWjWoM0Ju7CuyBYd01o6QqnjaR_tj_rBfP5qODDCFl0MBf4CLnC3AsAj0fe327Q06LNwmC4Sq9oopx9TX-uYArY1wOa7MTMsJWqZ5HkUQ5RPziY28Y5ZOlfAfIMgZ0vaPEFdDXsOSIJwkwCZzH0Wf10SL3XHaXwIQARS2PTnnAb1I6B14KYYrrrH1DU4Ao4QoMBATxRvpm5IjEA0rs_xv0AwhyAijqMAvl3Xn-WTP4QgQu5l3hfkzJ2zGcqtjqOirqa-Kj-HY2bCf4i5A7fUT2xuQspivTKXEj9VB7xcZpBrYYGyvM8vgm71g44VMMu8RxZ6VgR4bcU40xFSJeGXxsASDyJWw5rSf_QdpynSmjfFE8_nj6dpneKye6gGUouGBwrb652t1LbUaP5HDL0E8Db2wvpsfKxICP50guCuVgkTiwhlKsdAKNKDHq6aDhgLlXMOhAywfWJTWqHVtWt-8VUnG5UTfG8SbUXx1YAslo5XnA_lS8Gbt61HXDc-1eaWpIctxoUkKnfLBgDvzv0W1LKOs20mWn6S5rNqSxfkSv33TkRUlYbCOB747N6RjZF8NcSoQfTLF1nGeM6a6GLj_tt-1NlRJwBURFnkFKste1NW1X9-lt087-i6CrAslbNokgQUCWr89Ac3ZbrzNZgK1Emr4x8vw9uPIdxOIem-VXjzZhXQyPFCwzKjHQIvZ7BO-4lWaW3codYBIIs6cAtfAdEHFrOygpIf-TSQL9zC301JKgg2RIYw5EobBm3Rqkz8qcs1kne9zfeWwbFLYv5RG9wDZ_OKmYoP6GAKt0HoOUGHEOe2pfWQymToIhT0W_BCAPsR_fqn49AzqqXGpywx2V0hCRmrWFe-X5JEzMQWraq54zCCAjVxi7wWVmSRtaZ_GirIkjP1j9_ooPUDPlE8aYE6sZqdwFnDeMJUqTiZ5oCOL6UD9yDtmVp8yCxd2qfiv1CwnTJqdnF51yeF_UEBNewlKLE8cklhjgT8Pw_aF6oUqGTXqMzFZPhTOGU33B6WFRlK57pJqZ23bR5SFIJhVrPFycGzxWhBcirzG5pPhlmcjMoWCBFTKXVBKG029MDgOi7ktfatjUAUJqTWtjRLSUresNiCBoXav7qY9j7j3oxsdNMoKuLztdJErClthvqgBKS5jZlkbbg6rc1uRxhQu3GLj0gAuWYpj6UNM7QeA3MbaT7DXHtn11cQsW1yf_0000]--></g></svg>